<?xml version="1.0" standalone="no"?>
<!DOCTYPE svg PUBLIC "-//W3C//DTD SVG 1.1//EN" "http://www.w3.org/Graphics/SVG/1.1/DTD/svg11.dtd" >
<svg xmlns="http://www.w3.org/2000/svg">
<metadata>Generated by IcoMoon</metadata>
<defs>
<font id="icomoon" horiz-adv-x="1024">
<font-face units-per-em="1024" ascent="960" descent="-64" />
<missing-glyph horiz-adv-x="1024" />
<glyph unicode="&#x20;" horiz-adv-x="512" d="" />
<glyph unicode="&#xe900;" glyph-name="arrow-down" d="M512 336.384l-371.712 371.712c-27.648 27.648-71.68 27.648-99.328 0s-27.648-71.68 0-99.328l420.864-420.864c26.624-26.624 69.632-27.648 97.28-2.048l423.936 422.912c27.648 27.648 27.648 71.68 0 99.328s-71.68 27.648-99.328 0l-371.712-371.712z" />
<glyph unicode="&#xe901;" glyph-name="arrow-left" d="M400.384 448l371.712 371.712c27.648 27.648 27.648 71.68 0 99.328s-71.68 27.648-99.328 0l-420.864-420.864c-26.624-26.624-27.648-69.632-2.048-97.28l422.912-423.936c27.648-27.648 71.68-27.648 99.328 0s27.648 71.68 0 99.328l-371.712 371.712z" />
<glyph unicode="&#xe902;" glyph-name="arrow-right" d="M623.616 448l-371.712-371.712c-27.648-27.648-27.648-71.68 0-99.328s71.68-27.648 99.328 0l420.864 420.864c26.624 26.624 27.648 69.632 2.048 97.28l-422.912 423.936c-27.648 27.648-71.68 27.648-99.328 0s-27.648-71.68 0-99.328l371.712-371.712z" />
<glyph unicode="&#xe903;" glyph-name="arrow-up" d="M512 559.616l371.712-371.712c27.648-27.648 71.68-27.648 99.328 0s27.648 71.68 0 99.328l-420.864 420.864c-26.624 26.624-69.632 27.648-97.28 2.048l-423.936-422.912c-27.648-27.648-27.648-71.68 0-99.328s71.68-27.648 99.328 0l371.712 371.712z" />
<glyph unicode="&#xe904;" glyph-name="ascent" d="M59.392 639.488v0c-20.48-48.128-32.768-101.376-36.864-156.672-1.024-11.264-2.048-22.528-2.048-34.816 0-8.192 1.024-15.36 1.024-23.552 12.288-260.096 227.328-467.968 490.496-467.968 185.344 0 346.112 102.4 430.080 252.928v0c38.912 70.656 61.44 151.552 61.44 237.568 0 272.384-220.16 492.544-491.52 492.544-202.752 0-377.856-123.904-452.608-300.032zM962.56 448c0-79.872-21.504-154.624-57.344-220.16l-808.96 394.24c68.608 161.792 229.376 276.48 415.744 276.48 248.832 0 450.56-201.728 450.56-450.56zM702.464 581.12l-306.176 162.816c-9.216 5.12-21.504 1.024-26.624-8.192s-1.024-21.504 8.192-26.624l306.176-162.816-123.904-37.888c-10.24-3.072-16.384-14.336-13.312-24.576s14.336-16.384 24.576-13.312c0 0 0 0 0 0l167.936 52.224c2.048 1.024 4.096 2.048 6.144 3.072 2.048 2.048 4.096 4.096 5.12 6.144 2.048 4.096 3.072 10.24 1.024 14.336l-51.2 167.936c-3.072 10.24-13.312 16.384-23.552 13.312 0 0 0 0 0 0-10.24-3.072-16.384-14.336-13.312-24.576l38.912-121.856z" />
<glyph unicode="&#xe905;" glyph-name="bike" d="M813.056 529.92c-26.624 0-53.248-6.144-77.824-17.408l-59.392 103.424-48.128 93.184h121.856c24.576 0 45.056-19.456 45.056-45.056s-20.48-41.984-45.056-41.984h-22.528c-11.264 0-20.48-9.216-20.48-20.48s9.216-19.456 19.456-19.456h22.528c46.080 1.024 82.944 38.912 82.944 84.992-1.024 45.056-36.864 81.92-82.944 82.944h-153.6c-11.264 0-19.456-9.216-19.456-19.456 0-3.072 1.024-6.144 2.048-9.216l48.128-94.208h-256l-11.264 19.456h37.888c11.264 0 19.456 9.216 19.456 19.456 0 11.264-9.216 19.456-19.456 19.456h-114.688c-11.264 0-19.456-9.216-19.456-19.456 0-11.264 9.216-19.456 19.456-19.456h31.744l27.648-48.128-49.152-84.992c-24.576 11.264-51.2 16.384-77.824 17.408-106.496 0-192.512-84.992-193.536-191.488s84.992-192.512 190.464-193.536c106.496-1.024 192.512 84.992 193.536 190.464 0 62.464-28.672 120.832-78.848 156.672l37.888 65.536 103.424-178.176c-22.528-25.6-19.456-64.512 6.144-87.040s64.512-19.456 87.040 6.144c22.528 25.6 19.456 64.512-6.144 87.040-14.336 12.288-33.792 17.408-53.248 13.312l-108.544 188.416h254.976l54.272-94.208c-84.992-62.464-103.424-181.248-40.96-265.216 62.464-84.992 181.248-103.424 265.216-40.96 84.992 62.464 103.424 181.248 40.96 265.216-35.84 48.128-93.184 77.824-153.6 76.8v0zM365.568 339.456c0-83.968-67.584-151.552-151.552-151.552s-151.552 67.584-151.552 151.552 67.584 151.552 151.552 151.552c20.48 0 39.936-4.096 58.368-11.264l-74.752-130.048c-5.12-9.216-2.048-21.504 7.168-26.624s21.504-2.048 26.624 7.168v0l74.752 129.024c36.864-28.672 59.392-72.704 59.392-119.808v0zM513.024 363.008c12.288 0 23.552-10.24 23.552-23.552s-10.24-23.552-23.552-23.552c-12.288 0-23.552 10.24-23.552 23.552 1.024 13.312 11.264 23.552 23.552 23.552v0zM813.056 187.904c-82.944 0-151.552 66.56-151.552 150.528 0 47.104 21.504 92.16 59.392 120.832l74.752-129.024c3.072-6.144 10.24-10.24 17.408-10.24 3.072 0 7.168 1.024 10.24 3.072 9.216 5.12 12.288 17.408 7.168 26.624 0 0 0 0 0 0l-74.752 130.048c76.8 31.744 165.888-4.096 197.632-81.92 31.744-76.8-4.096-165.888-81.92-197.632-18.432-8.192-38.912-12.288-58.368-12.288v0z" />
<glyph unicode="&#xe906;" glyph-name="close-filled" d="M512 939.52c-271.459 0-491.52-220.061-491.52-491.52s220.061-491.52 491.52-491.52c271.459 0 491.52 220.061 491.52 491.52v0c0 271.459-220.061 491.52-491.52 491.52v0zM722.842 237.158v0c-4.727-4.737-11.263-7.667-18.483-7.667s-13.756 2.93-18.483 7.667v0l-157.491 157.491-157.389-157.491c-4.744-4.743-11.296-7.676-18.534-7.676s-13.791 2.933-18.534 7.676v0c-4.743 4.744-7.676 11.296-7.676 18.534s2.933 13.791 7.676 18.534v0l157.594 157.389-157.594 157.491c-4.737 4.727-7.667 11.263-7.667 18.483s2.93 13.756 7.667 18.483v0c4.766 4.694 11.312 7.592 18.534 7.592s13.769-2.898 18.538-7.596l-0.003 0.003 157.389-157.594 157.696 157.594c4.744 4.743 11.296 7.676 18.534 7.676s13.791-2.933 18.534-7.676v0c4.737-4.727 7.667-11.263 7.667-18.483s-2.93-13.756-7.667-18.483v0l-157.696-157.491 157.389-157.696c4.652-4.728 7.524-11.219 7.524-18.381s-2.872-13.653-7.527-18.384l0.003 0.004z" />
<glyph unicode="&#xe907;" glyph-name="loading" d="M512 939.52c-27.648 0-49.152-22.528-49.152-49.152v-173.056c0-27.648 22.528-49.152 49.152-49.152s49.152 22.528 49.152 49.152v173.056c0 26.624-21.504 49.152-49.152 49.152zM356.352 673.28l-121.856 121.856c-19.456 19.456-51.2 19.456-69.632 0-19.456-19.456-19.456-51.2 0-69.632l121.856-121.856c19.456-19.456 51.2-19.456 69.632 0 19.456 19.456 19.456 50.176 0 69.632zM242.688 497.152h-173.056c-26.624 0-49.152-21.504-49.152-49.152s22.528-49.152 49.152-49.152h173.056c27.648 0 49.152 22.528 49.152 49.152 0 27.648-21.504 49.152-49.152 49.152zM356.352 292.352c-19.456 19.456-51.2 19.456-69.632 0l-121.856-121.856c-19.456-19.456-19.456-51.2 0-69.632 19.456-19.456 51.2-19.456 69.632 0l121.856 121.856c19.456 19.456 19.456 50.176 0 69.632zM512 227.84c-27.648 0-49.152-22.528-49.152-49.152v-173.056c0-27.648 22.528-49.152 49.152-49.152s49.152 22.528 49.152 49.152v173.056c0 27.648-21.504 49.152-49.152 49.152zM859.136 170.496l-121.856 121.856c-19.456 19.456-51.2 19.456-69.632 0-19.456-19.456-19.456-51.2 0-69.632l121.856-121.856c19.456-19.456 51.2-19.456 69.632 0 19.456 18.432 19.456 50.176 0 69.632zM954.368 497.152h-173.056c-27.648 0-49.152-22.528-49.152-49.152 0-27.648 22.528-49.152 49.152-49.152h173.056c27.648 0 49.152 22.528 49.152 49.152 0 27.648-22.528 49.152-49.152 49.152zM859.136 795.136c-19.456 19.456-51.2 19.456-69.632 0l-121.856-121.856c-19.456-19.456-19.456-51.2 0-69.632 19.456-19.456 51.2-19.456 69.632 0l121.856 121.856c19.456 19.456 19.456 51.2 0 69.632z" />
<glyph unicode="&#xe908;" glyph-name="email-filled" d="M510.054 939.52c-270.244-0.35-489.225-219.331-489.574-489.541v-0.033c0-270.029 219.648-493.466 489.574-493.466 271.789 1.844 491.621 221.677 493.465 493.29l0.001 0.176c0 269.926-223.437 489.574-493.466 489.574zM715.571 305.869c-38.825 0.062-73.14 19.321-93.966 48.791l-0.242 0.361c-26.546-30.246-65.285-49.236-108.459-49.236-79.571 0-144.077 64.505-144.077 144.077s64.505 144.077 144.077 144.077c33.002 0 63.413-11.096 87.705-29.761l-0.341 0.251v0.717c0.934 15.191 13.482 27.158 28.826 27.158s27.892-11.967 28.822-27.076l0.004-0.082v-143.974c-0.033-0.725-0.051-1.575-0.051-2.429 0-31.84 25.811-57.651 57.651-57.651s57.651 25.811 57.651 57.651c0 0.854-0.019 1.704-0.055 2.55l0.004-0.12c0 192.717-128 287.949-259.174 287.949-143.138 0-259.174-116.036-259.174-259.174s116.036-259.174 259.174-259.174v0c0.316-0.001 0.689-0.002 1.062-0.002 59.171 0 113.652 20.075 157.006 53.785l-0.577-0.432c30.72 23.142 65.229-22.63 35.123-45.67-52.414-40.751-119.16-65.333-191.646-65.333-0.34 0-0.681 0.001-1.021 0.002h0.053c-1.695-0.033-3.693-0.051-5.696-0.051-174.978 0-316.826 141.848-316.826 316.826s141.848 316.826 316.826 316.826c2.003 0 4.001-0.019 5.994-0.056l-0.299 0.004c159.13 0 316.723-117.35 316.723-345.498 0 0 0 0 0 0 0-63.608-51.506-115.186-115.086-115.302h-0.011zM600.371 449.946c0-47.732-38.694-86.426-86.426-86.426s-86.426 38.694-86.426 86.426c0 47.732 38.694 86.426 86.426 86.426s86.426-38.694 86.426-86.426z" />
<glyph unicode="&#xe909;" glyph-name="close" d="M985.088 65.024l-382.976 382.976 382.976 382.976c24.576 24.576 24.576 65.536 0 90.112s-65.536 24.576-90.112 0l-382.976-382.976-382.976 382.976c-24.576 24.576-65.536 24.576-90.112 0s-24.576-65.536 0-90.112l382.976-382.976-382.976-382.976c-24.576-24.576-24.576-65.536 0-90.112s65.536-24.576 90.112 0l382.976 382.976 382.976-382.976c24.576-24.576 65.536-24.576 90.112 0s24.576 65.536 0 90.112z" />
<glyph unicode="&#xe90a;" glyph-name="comments" d="M512 697.856c-10.24 0-19.456-8.192-19.456-19.456 0-10.24 8.192-19.456 19.456-19.456 10.24 0 19.456 8.192 19.456 19.456v0c0 10.24-9.216 19.456-19.456 19.456zM193.536 351.744c10.24 0 19.456 8.192 19.456 19.456 0 10.24-8.192 19.456-19.456 19.456-10.24 0-19.456-8.192-19.456-19.456v0c0-10.24 8.192-19.456 19.456-19.456zM665.6 889.344c-173.056 0-314.368-118.784-325.632-269.312-164.864-8.192-319.488-126.976-319.488-286.72 1.024-68.608 27.648-134.144 74.752-183.296 9.216-39.936-2.048-80.896-30.72-109.568-7.168-7.168-7.168-19.456 0-27.648 4.096-3.072 8.192-5.12 13.312-5.12 54.272 0 107.52 21.504 146.432 59.392 43.008-14.336 88.064-20.48 133.12-20.48 173.056 0 314.368 118.784 325.632 269.312 38.912 2.048 77.824 8.192 114.688 20.48 38.912-37.888 92.16-59.392 146.432-59.392 10.24 0 19.456 8.192 19.456 19.456 0 5.12-2.048 10.24-5.12 13.312-28.672 28.672-39.936 70.656-30.72 109.568 47.104 49.152 74.752 114.688 74.752 183.296 1.024 165.888-165.888 286.72-336.896 286.72zM358.4 83.456c-45.056 0-97.28 9.216-131.072 22.528-7.168 3.072-16.384 1.024-21.504-5.12-23.552-25.6-53.248-43.008-86.016-51.2 18.432 34.816 22.528 75.776 11.264 114.688-1.024 3.072-2.048 6.144-5.12 8.192-43.008 43.008-66.56 100.352-67.584 160.768 1.024 135.168 137.216 248.832 300.032 248.832 153.6 0 287.744-106.496 287.744-249.856 0-137.216-129.024-248.832-287.744-248.832zM898.048 440.832c-2.048-2.048-4.096-5.12-5.12-8.192-11.264-37.888-7.168-78.848 11.264-114.688-32.768 8.192-63.488 25.6-86.016 51.2-5.12 6.144-14.336 8.192-21.504 5.12-35.84-13.312-74.752-20.48-112.64-22.528-5.12 72.704-41.984 141.312-103.424 191.488h250.88c10.24 0 19.456 8.192 19.456 19.456s-8.192 19.456-19.456 19.456h-310.272c-44.032 22.528-93.184 34.816-143.36 37.888 11.264 129.024 136.192 231.424 287.744 231.424 162.816 0 300.032-114.688 300.032-249.856-1.024-60.416-25.6-117.76-67.584-160.768v0zM512 390.656h-241.664c-10.24 0-19.456-8.192-19.456-19.456 0-10.24 8.192-19.456 19.456-19.456 0 0 0 0 0 0h241.664c10.24 0 19.456 8.192 19.456 19.456 0 10.24-9.216 19.456-19.456 19.456 0 0 0 0 0 0v0zM512 274.944h-318.464c-10.24 0-19.456-8.192-19.456-19.456 0-10.24 8.192-19.456 19.456-19.456 0 0 0 0 0 0h318.464c10.24 0 19.456 8.192 19.456 19.456s-9.216 19.456-19.456 19.456c0 0 0 0 0 0zM830.464 697.856h-241.664c-10.24 0-19.456-8.192-19.456-19.456 0-10.24 8.192-19.456 19.456-19.456h241.664c10.24 0 19.456 8.192 19.456 19.456 0 10.24-8.192 19.456-19.456 19.456v0z" />
<glyph unicode="&#xe90b;" glyph-name="descent" d="M48.128 609.792v0c-14.336-39.936-23.552-82.944-26.624-126.976 0-11.264-1.024-22.528-1.024-34.816 0-8.192 1.024-15.36 1.024-23.552 12.288-260.096 227.328-467.968 490.496-467.968 174.080 0 325.632 90.112 413.696 226.304v0c49.152 76.8 77.824 167.936 77.824 265.216 0 271.36-220.16 491.52-491.52 491.52-214.016 0-396.288-138.24-463.872-329.728zM962.56 448c0-91.136-27.648-176.128-73.728-246.784l-803.84 391.168c60.416 177.152 229.376 306.176 427.008 306.176 248.832 0 450.56-201.728 450.56-450.56zM387.072 665.088c-1.024-2.048-2.048-5.12-2.048-7.168s0-5.12 1.024-7.168l56.32-165.888c0 0 0 0 0 0 3.072-10.24 14.336-15.36 24.576-12.288 10.24 4.096 15.36 14.336 12.288 24.576l-41.984 121.856 312.32-152.576c9.216-5.12 21.504-1.024 25.6 9.216 5.12 9.216 1.024 21.504-9.216 25.6l-311.296 153.6 121.856 41.984c10.24 3.072 15.36 14.336 12.288 24.576-4.096 10.24-14.336 15.36-24.576 11.264l-165.888-57.344c-5.12-2.048-9.216-5.12-11.264-10.24z" />
<glyph unicode="&#xe90c;" glyph-name="distance" d="M512-43.52c-271.36 0-491.52 220.16-491.52 491.52s220.16 491.52 491.52 491.52 491.52-220.16 491.52-491.52c0-271.36-220.16-491.52-491.52-491.52zM512 898.56c-248.832 0-450.56-201.728-450.56-450.56s201.728-450.56 450.56-450.56 450.56 201.728 450.56 450.56c0 248.832-201.728 450.56-450.56 450.56zM797.696 253.44l-167.936 207.872c27.648 48.128 50.176 101.376 50.176 145.408 0 88.064-71.68 159.744-159.744 159.744v0 0c-88.064 0-160.768-70.656-160.768-159.744 0 0 0 0 0-1.024v0c0-44.032 21.504-94.208 48.128-142.336l-167.936-209.92c-7.168-9.216-5.12-21.504 3.072-28.672 4.096-3.072 8.192-4.096 12.288-4.096h527.36c11.264 0 20.48 9.216 20.48 20.48 0 4.096-2.048 9.216-5.12 12.288zM519.168 665.088c31.744 0 57.344-25.6 57.344-57.344s-25.6-57.344-57.344-57.344c-31.744 0-57.344 25.6-57.344 57.344v0c0 31.744 25.6 57.344 57.344 57.344zM297.984 261.632l132.096 165.888c26.624-41.984 57.344-80.896 90.112-118.784 31.744 35.84 61.44 74.752 88.064 114.688l132.096-163.84-442.368 2.048z" />
<glyph unicode="&#xe90d;" glyph-name="download" d="M863.232 623.104h-176.128c-19.456 0-34.816-15.36-34.816-34.816s15.36-34.816 34.816-34.816h175.104c19.456 0 34.816-15.36 34.816-34.816v-456.704c0-19.456-15.36-34.816-34.816-34.816h-701.44c-19.456 0-34.816 15.36-34.816 34.816v456.704c0 19.456 15.36 34.816 34.816 34.816h175.104c19.456 0 34.816 15.36 34.816 34.816s-15.36 34.816-34.816 34.816h-175.104c-58.368 0-105.472-47.104-105.472-105.472v-456.704c0-57.344 47.104-104.448 105.472-104.448h702.464c58.368 0 105.472 47.104 105.472 105.472v456.704c0 57.344-47.104 104.448-105.472 104.448zM711.68 437.76c-13.312 13.312-34.816 13.312-49.152 0l-115.712-115.712v582.656c0 19.456-15.36 34.816-34.816 34.816s-34.816-15.36-34.816-34.816v-582.656l-115.712 115.712c-14.336 13.312-35.84 13.312-49.152-1.024-13.312-13.312-13.312-34.816 0-49.152l175.104-175.104c13.312-13.312 35.84-13.312 49.152 0 0 0 0 0 0 0l175.104 175.104c14.336 14.336 14.336 36.864 0 50.176z" />
<glyph unicode="&#xe90e;" glyph-name="ebike" d="M713.523 690.893c-18.87-0.072-36.746-4.253-52.804-11.692l0.784 0.326-40.141 69.53-32.051 62.669h81.92c15.744-0.951 28.152-13.951 28.152-29.85s-12.408-28.899-28.068-29.846l-0.083-0.004h-15.872c-7.239 0-13.107-5.868-13.107-13.107s5.868-13.107 13.107-13.107h15.36c31.105 0 56.32 25.215 56.32 56.32s-25.215 56.32-56.32 56.32v0h-102.81c-7.239 0-13.107-5.868-13.107-13.107v0c0-0.002 0-0.005 0-0.008 0-2.2 0.53-4.277 1.469-6.109l-0.035 0.076 32.154-62.976h-172.032l-7.475 12.902h25.293c7.239 0 13.107 5.868 13.107 13.107s-5.868 13.107-13.107 13.107h-76.698c-7.239 0-13.107-5.868-13.107-13.107s5.868-13.107 13.107-13.107h21.402l18.842-32.358-32.87-56.934c-15.267 7.162-33.152 11.349-52.013 11.366h-0.006c-0.298 0.002-0.651 0.004-1.004 0.004-71.088 0-128.717-57.628-128.717-128.717s57.628-128.717 128.717-128.717c71.088 0 128.717 57.628 128.717 128.717 0 42.655-20.748 80.463-52.702 103.885l-0.361 0.252 25.395 43.93 69.325-119.603c-6.131-7.119-9.865-16.454-9.865-26.661 0-22.622 18.338-40.96 40.96-40.96s40.96 18.338 40.96 40.96c0 22.622-18.338 40.96-40.96 40.96-2.998 0-5.92-0.322-8.735-0.933l0.27 0.049-73.216 125.235h170.701l36.557-63.386c-31.741-23.426-52.101-60.688-52.101-102.706 0-70.297 56.987-127.283 127.283-127.283s127.283 56.987 127.283 127.283c0 70.297-56.987 127.283-127.283 127.283-0.151 0-0.303 0-0.454-0.001h0.024zM413.901 563.098c0-0.060 0-0.131 0-0.202 0-56.158-45.525-101.683-101.683-101.683s-101.683 45.525-101.683 101.683c0 55.906 45.117 101.274 100.928 101.68h0.039c0.199 0.001 0.435 0.002 0.671 0.002 13.954 0 27.239-2.863 39.3-8.033l-0.65 0.248-49.766-87.142c-1.129-1.888-1.797-4.164-1.797-6.596 0-4.832 2.635-9.048 6.546-11.29l0.063-0.034c1.874-1.083 4.123-1.722 6.521-1.722 4.835 0 9.063 2.598 11.366 6.474l0.034 0.061 50.074 86.835c24.336-18.61 39.911-47.614 40.038-80.261v-0.021zM512.922 578.662c0.030 0 0.066 0 0.102 0 8.596 0 15.565-6.969 15.565-15.565s-6.969-15.565-15.565-15.565c-8.596 0-15.565 6.968-15.565 15.564v0c0 0 0 0 0 0 0 8.56 6.91 15.506 15.457 15.564h0.006zM713.523 461.619c-0.133-0.001-0.29-0.001-0.447-0.001-55.819 0-101.069 45.25-101.069 101.069 0 32.797 15.621 61.945 39.829 80.41l0.246 0.18 50.074-86.733c2.333-3.948 6.567-6.554 11.41-6.554 0.021 0 0.041 0 0.062 0h-0.003c2.411 0.020 4.667 0.663 6.621 1.776l-0.067-0.035c3.937 2.336 6.535 6.564 6.535 11.399 0 2.398-0.639 4.647-1.756 6.585l0.034-0.064-50.278 87.142c11.513 4.921 24.909 7.782 38.973 7.782 56.045 0 101.478-45.433 101.478-101.478s-45.433-101.478-101.478-101.478c-0.022 0-0.043 0-0.065 0h0.003zM311.398 423.219h-1.126c-76.502 0.32-138.395 62.41-138.395 138.957 0 76.744 62.214 138.958 138.958 138.958 0.198 0 0.396 0 0.594-0.001h0.993c17.12-0.059 33.478-3.247 48.556-9.020l-0.94 0.316 25.395 44.032-12.8 22.118h-15.155c-12.894 0-23.347 10.453-23.347 23.347v0c-0.002 0.105-0.003 0.229-0.003 0.353 0 6.315 2.587 12.026 6.758 16.131l0.003 0.003c4.196 4.237 10.015 6.861 16.446 6.861 0.014 0 0.028 0 0.042 0h76.798c0 0 0 0 0 0 12.858 0 23.289-10.395 23.347-23.239v-0.006c0-0.036 0-0.078 0-0.121 0-6.066-2.293-11.597-6.060-15.772l0.018 0.021h120.218l-24.576 48.128c-1.608 3.086-2.552 6.739-2.552 10.613 0 6.454 2.619 12.297 6.852 16.523v0c4.196 4.237 10.015 6.861 16.446 6.861 0.014 0 0.028 0 0.042 0h103.115c36.76 0 66.56-29.8 66.56-66.56s-29.8-66.56-66.56-66.56h-18.944l13.517-22.733c13.63 5.306 29.4 8.48 45.883 8.703l0.094 0.001h2.253c75.917-0.046 137.443-61.599 137.443-137.523 0-75.952-61.571-137.523-137.523-137.523s-137.523 61.571-137.523 137.523c0 42.151 18.963 79.873 48.824 105.099l0.204 0.168-29.184 50.586h-146.739l60.518-104.448c0.708 0.035 1.537 0.055 2.371 0.055 28.277 0 51.2-22.923 51.2-51.2s-22.923-51.2-51.2-51.2c-12.651 0-24.23 4.588-33.164 12.191l0.073-0.060c-11.161 9.453-18.198 23.477-18.198 39.145 0 10.172 2.966 19.651 8.081 27.619l-0.122-0.204-57.139 98.406-12.083-20.48c30.685-25.668 50.063-63.973 50.063-106.803 0-76.744-62.213-138.957-138.957-138.957-0.032 0-0.065 0-0.097 0h0.005zM311.398 680.653c-0.137 0.001-0.299 0.001-0.461 0.001-65.433 0-118.478-53.044-118.478-118.478 0-65.271 52.782-118.215 117.992-118.477h0.947c65.428 0.007 118.465 53.048 118.465 118.477 0 39.258-19.094 74.056-48.502 95.614l-0.332 0.232-7.373 5.018 38.81 67.277 81.92-141.21-4.71-5.53c-4.699-5.368-7.564-12.443-7.564-20.188 0-0.824 0.032-1.64 0.096-2.447l-0.007 0.107c1.545-15.658 14.646-27.789 30.58-27.789 16.966 0 30.72 13.754 30.72 30.72 0 9.018-3.886 17.129-10.074 22.748l-0.025 0.023c-5.437 4.661-12.556 7.498-20.339 7.498-2.225 0-4.396-0.232-6.49-0.673l0.204 0.036-7.27-1.536-85.504 147.456h194.56l43.725-76.493-7.373-5.427c-29.007-21.553-47.597-55.713-47.597-94.214 0-64.641 52.402-117.043 117.043-117.043s117.043 52.402 117.043 117.043c0 25.911-8.42 49.855-22.672 69.247l0.228-0.325c-21.442 28.921-55.366 47.537-93.651 47.821h-1.171c-17.358-0.003-33.834-3.774-48.657-10.54l0.734 0.3-8.397-3.789-45.261 77.824-39.936 78.131h98.406c22.169 0 40.141-17.972 40.141-40.141s-17.972-40.141-40.141-40.141v0h-15.667c-0.033 0.002-0.072 0.003-0.112 0.003-0.728 0-1.382-0.316-1.832-0.819l-0.002-0.002c-0.564-0.506-0.918-1.235-0.922-2.047v-0.001c0.057-1.595 1.364-2.867 2.968-2.867 0.001 0 0.001 0 0.002 0h15.258c25.449 0 46.080 20.631 46.080 46.080s-20.631 46.080-46.080 46.080v0h-102.81c-0.791-0.021-1.507-0.328-2.051-0.822l0.003 0.002c-0.507-0.517-0.819-1.225-0.819-2.007 0-0.014 0-0.029 0-0.043v0.002c-0.050-0.2-0.078-0.429-0.078-0.666s0.029-0.466 0.082-0.685l-0.004 0.020 39.731-77.926h-194.56l-19.046 32.973h43.008c0.031-0.001 0.068-0.002 0.104-0.002 1.527 0 2.765 1.238 2.765 2.765 0 0.037-0.001 0.073-0.002 0.11v-0.005c0.001 0.031 0.002 0.068 0.002 0.104 0 1.527-1.238 2.765-2.765 2.765-0.037 0-0.073-0.001-0.11-0.002h-76.693c-0.031 0.001-0.068 0.002-0.104 0.002-1.527 0-2.765-1.238-2.765-2.765 0-0.037 0.001-0.073 0.002-0.11v0.005c-0.001-0.031-0.002-0.068-0.002-0.104 0-1.527 1.238-2.765 2.765-2.765 0.037 0 0.073 0.001 0.11 0.002h26.926l25.19-42.598-40.96-70.042-8.499 3.789c-14.018 6.468-30.419 10.24-47.701 10.24-0.042 0-0.084 0-0.126 0h0.007zM606.106 801.587l27.955-53.965c1.219 3.035 2.954 5.624 5.119 7.782l0.001 0.001c4.135 4.176 9.845 6.785 16.165 6.861h15.374c10.858 0 19.661 8.802 19.661 19.661s-8.802 19.661-19.661 19.661v0zM312.218 451.072c-61.813 0-111.923 50.11-111.923 111.923s50.11 111.923 111.923 111.923v0 0c15.532-0.009 30.314-3.209 43.729-8.98l-0.721 0.276 10.752-4.403-56.115-97.28c-0.132-0.318-0.209-0.688-0.209-1.075s0.077-0.757 0.216-1.094l-0.007 0.019c0.24-0.73 0.708-1.331 1.319-1.733l0.012-0.008c0.33-0.158 0.717-0.25 1.126-0.25s0.796 0.092 1.143 0.257l-0.016-0.007c0.748 0.204 1.359 0.682 1.733 1.318l0.007 0.013 55.91 96.87 9.216-7.066c26.784-20.497 43.939-52.411 44.134-88.339v-0.032c0-0.122 0.001-0.266 0.001-0.41 0-61.813-50.11-111.923-111.923-111.923-0.072 0-0.144 0-0.217 0h0.011zM312.218 654.438v0c-50.503 0-91.443-40.941-91.443-91.443s40.941-91.443 91.443-91.443v0 0c50.459 0.058 91.341 40.976 91.341 91.443 0 0.036 0 0.072 0 0.108v-0.006c-0.184 25.205-10.525 47.96-27.129 64.402l-0.007 0.007-43.827-76.083c-4.152-6.961-11.643-11.551-20.206-11.551-10.72 0-19.761 7.194-22.556 17.017l-0.040 0.165c-0.505 1.808-0.796 3.885-0.796 6.030 0 4.305 1.17 8.337 3.21 11.794l-0.059-0.108 44.134 76.39c-7.211 2.069-15.496 3.264-24.057 3.277h-0.007zM713.626 451.379v0c-0.041 0-0.090 0-0.138 0-61.474 0-111.309 49.835-111.309 111.309 0 36.135 17.219 68.248 43.898 88.582l0.272 0.199 9.216 7.066 55.91-96.87c0.48-0.861 1.385-1.434 2.423-1.434 0.012 0 0.024 0 0.036 0h-0.002c0.2-0.045 0.43-0.071 0.666-0.071s0.466 0.026 0.687 0.074l-0.021-0.004c0.896 0.523 1.488 1.479 1.488 2.574 0 0.521-0.134 1.010-0.369 1.435l0.008-0.015-56.115 97.28 10.24 4.403c12.561 5.31 27.165 8.396 42.491 8.396 61.7 0 111.718-50.018 111.718-111.718 0-61.555-49.782-111.482-111.281-111.718h-0.022zM649.421 627.507c-16.794-16.494-27.202-39.441-27.202-64.819 0-50.163 40.665-90.829 90.829-90.829 0.059 0 0.119 0 0.178 0h-0.009c0.044 0 0.095 0 0.147 0 37.775 0 70.17 23.034 83.906 55.823l0.223 0.6c4.441 10.31 7.023 22.313 7.023 34.918s-2.582 24.608-7.247 35.507l0.224-0.589c-14.141 33.272-46.546 56.18-84.302 56.18-8.44 0-16.613-1.145-24.372-3.287l0.642 0.151 44.032-76.39c1.969-3.341 3.132-7.361 3.132-11.652 0-8.603-4.674-16.115-11.621-20.134l-0.112-0.060c-3.31-1.987-7.302-3.166-11.569-3.174h-0.002c-0.095-0.001-0.207-0.002-0.319-0.002-8.58 0-16.075 4.649-20.102 11.565l-0.060 0.111zM512.922 537.395c-0.974-0.13-2.101-0.205-3.245-0.205-14.252 0-25.805 11.553-25.805 25.805s11.553 25.805 25.805 25.805c1.144 0 2.27-0.074 3.375-0.219l-0.13 0.014c0.974 0.13 2.101 0.205 3.245 0.205 14.252 0 25.805-11.553 25.805-25.805s-11.553-25.805-25.805-25.805c-1.144 0-2.27 0.074-3.375 0.219l0.13-0.014zM512.922 568.115c-2.941 0-5.325-2.384-5.325-5.325v0c0-2.941 2.384-5.325 5.325-5.325s5.325 2.384 5.325 5.325c0 2.941-2.384 5.325-5.325 5.325v0zM512-43.52c-271.459 0-491.52 220.061-491.52 491.52s220.061 491.52 491.52 491.52c271.459 0 491.52-220.061 491.52-491.52v0c0-271.459-220.061-491.52-491.52-491.52v0zM512 898.56c-248.837 0-450.56-201.723-450.56-450.56s201.723-450.56 450.56-450.56c248.837 0 450.56 201.723 450.56 450.56v0c0 248.837-201.723 450.56-450.56 450.56v0zM512-43.52c271.126 0.291 490.88 219.828 491.52 490.845v0.675c0 271.459-220.061 491.52-491.52 491.52s-491.52-220.061-491.52-491.52v0-0.614c0.35-271.195 220.277-490.906 491.52-490.906v0zM61.44 448c0 248.837 201.723 450.56 450.56 450.56s450.56-201.723 450.56-450.56v0-0.614c0-248.837-201.723-450.56-450.56-450.56s-450.56 201.723-450.56 450.56v0zM61.44 447.386c0-248.837 201.723-450.56 450.56-450.56s450.56 201.723 450.56 450.56v0zM439.194 24.678l51.2 189.85h-115.507l71.68 205.619h163.123l-71.68-125.030h135.168z" />
<glyph unicode="&#xe90f;" glyph-name="facebook-filled" d="M1007.923 448c-0.031 273.868-222.052 495.869-495.923 495.869-273.891 0-495.923-222.032-495.923-495.923 0-246.524 179.879-451.036 415.546-489.443l2.86-0.385v346.522h-125.85v143.36h125.85v109.261c0 124.314 74.035 192.922 187.392 192.922 39.644-0.57 78.013-4.048 115.469-10.235l-4.468 0.609v-122.061h-62.566c-61.44 0-80.794-38.298-80.794-77.517v-92.979h137.523l-22.016-143.36h-115.507v-346.522c238.524 38.836 418.39 243.352 418.406 489.88v0.001z" />
<glyph unicode="&#xe910;" glyph-name="messenger-filled" d="M512 939.52c-276.48 0-491.52-202.854-491.52-476.774-0.024-1.748-0.037-3.812-0.037-5.879 0-137.443 59.408-261.011 153.947-346.425l0.407-0.362c7.85-6.907 12.875-16.864 13.208-28l0.001-0.058 2.765-87.347c0.606-21.188 17.926-38.133 39.204-38.133 5.712 0 11.138 1.221 16.033 3.416l-0.248-0.1 97.587 43.11c4.64 2.076 10.056 3.285 15.754 3.285 3.76 0 7.397-0.526 10.841-1.509l-0.278 0.068c42.269-11.965 90.813-18.843 140.963-18.843 0.482 0 0.965 0.001 1.447 0.002h-0.074c276.48 0 491.52 202.854 491.52 476.774s-215.040 476.774-491.52 476.774zM807.117 572.723l-144.384-229.069c-13.243-20.829-36.2-34.45-62.338-34.45-16.695 0-32.093 5.557-44.444 14.922l0.183-0.133-114.79 86.118c-4.886 3.7-11.066 5.926-17.766 5.926s-12.88-2.227-17.841-5.98l0.074 0.054-155.136-117.862c-3.778-2.742-8.508-4.386-13.622-4.386-12.894 0-23.347 10.453-23.347 23.347 0 4.333 1.18 8.39 3.237 11.867l-0.059-0.108 144.384 229.069c13.243 20.829 36.2 34.45 62.338 34.45 16.695 0 32.093-5.557 44.444-14.922l-0.183 0.133 114.79-85.811c4.886-3.7 11.066-5.926 17.766-5.926s12.88 2.227 17.841 5.98l-0.074-0.054 155.136 117.76c3.821 2.837 8.63 4.542 13.837 4.542 12.894 0 23.347-10.453 23.347-23.347 0-4.48-1.262-8.666-3.45-12.221l0.058 0.101z" />
<glyph unicode="&#xe911;" glyph-name="twitter-filled" d="M512 939.52c-271.459 0-491.52-220.061-491.52-491.52s220.061-491.52 491.52-491.52c271.459 0 491.52 220.061 491.52 491.52v0c0 271.459-220.061 491.52-491.52 491.52v0zM758.989 541.184c0-4.915 0-10.24 0-15.258 0-156.57-119.194-337.203-337.101-337.203-0.254-0.001-0.555-0.001-0.855-0.001-67.055 0-129.442 19.985-181.53 54.324l1.239-0.767c8.205-1.109 17.69-1.743 27.323-1.743 0.33 0 0.66 0.001 0.99 0.002h-0.051c55.808 0.078 107.098 19.353 147.637 51.574l-0.488-0.374c-51.538 0.881-94.975 34.595-110.353 81.084l-0.239 0.836c6.624-1.433 14.233-2.254 22.034-2.254 0.138 0 0.275 0 0.412 0.001h-0.021c11.121 0.026 21.873 1.557 32.078 4.4l-0.846-0.201c-54.639 11.313-95.123 59.040-95.13 116.223v1.537c15.362-8.788 33.679-14.16 53.209-14.64l0.141-0.003c-32.030 21.41-52.839 57.426-52.839 98.303 0 0.072 0 0.145 0 0.217v-0.011c0.042 21.908 5.968 42.423 16.28 60.060l-0.306-0.566c58.729-72.075 145.782-119.132 243.937-124.077l0.799-0.032c-1.959 7.65-3.083 16.433-3.083 25.478 0 0.547 0.004 1.093 0.012 1.638l-0.001-0.082c0.174 65.358 53.197 118.274 118.579 118.274 33.942 0 64.553-14.261 86.169-37.118l0.052-0.056c28.351 5.776 53.522 15.751 76.252 29.38l-1.090-0.606c-9.092-27.979-27.501-50.805-51.492-65.342l-0.527-0.296c25.239 3.114 48.201 9.708 69.49 19.345l-1.496-0.606c-16.241-24.092-35.88-44.448-58.502-60.963l-0.685-0.477z" />
<glyph unicode="&#xe912;" glyph-name="whatsapp-filled" d="M861.082 794.931c-308.941 308.429-842.752 90.317-842.752-346.931 0.039-96.776 28.075-186.995 76.448-263.008l-1.184 1.991 11.878-18.637-49.869-181.146 186.266 48.435c76.118-49.394 169.142-78.869 269.031-79.155h1.1c440.934 0 657.306 532.48 349.082 838.451zM801.69 238.387c-12.39-35.021-71.68-66.355-100.147-70.861-10.154-1.778-21.846-2.794-33.775-2.794-21.266 0-41.777 3.23-61.070 9.226l1.456-0.39c-131.379 45.056-203.264 77.619-337.92 254.054-68.608 96.666-88.781 187.597-8.602 275.763 18.432 19.149 39.322 19.558 67.994 17.101 9.114 0 21.402 3.686 33.382-25.293s42.086-102.4 45.773-109.67c2.353-3.936 3.744-8.683 3.744-13.754 0-4.471-1.081-8.689-2.996-12.407l0.071 0.152c-27.75-52.429-58.163-56.013-43.622-81.203 23.339-39.199 50.704-72.886 82.244-102.134l0.29-0.266c33.878-30.341 73.416-55.25 116.7-72.86l2.699-0.971c14.746-6.656 23.347-5.939 32.051 3.789 58.47 66.97 49.869 76.39 80.384 65.126 13.517-4.915 86.323-40.96 101.274-48.026l0.512 3.789c14.848-6.758 24.576-10.24 28.262-17.203s3.994-36.147-8.704-71.168z" />
<glyph unicode="&#xe913;" glyph-name="facebook" d="M587.776-43.52v448.512h150.528l22.528 175.104h-173.056v111.616c0 50.176 14.336 84.992 87.040 84.992h92.16v155.648c-44.032 5.12-89.088 7.168-134.144 7.168-133.12 0-225.28-81.92-225.28-231.424v-129.024h-150.528v-175.104h150.528v-447.488h180.224z" />
<glyph unicode="&#xe914;" glyph-name="full-size" d="M54.272 642.56c18.432 0 33.792 15.36 33.792 33.792v146.432l220.16-220.16c7.168-7.168 15.36-10.24 24.576-10.24s17.408 3.072 24.576 10.24c13.312 13.312 13.312 34.816 0 48.128l-220.16 220.16h146.432c18.432 0 33.792 15.36 33.792 33.792s-15.36 34.816-33.792 34.816h-229.376c-18.432 0-33.792-15.36-33.792-33.792v-228.352c0-19.456 15.36-34.816 33.792-34.816zM969.728 253.44c-18.432 0-33.792-15.36-33.792-33.792v-146.432l-228.352 227.328c-13.312 13.312-34.816 13.312-48.128 0s-13.312-34.816 0-48.128l227.328-227.328h-146.432c-18.432 0-33.792-15.36-33.792-33.792s15.36-33.792 33.792-33.792h228.352c18.432 0 33.792 15.36 33.792 33.792v228.352c1.024 18.432-14.336 33.792-32.768 33.792zM316.416 300.544l-227.328-227.328v146.432c0 18.432-15.36 33.792-33.792 33.792s-34.816-15.36-34.816-33.792v-228.352c0-19.456 15.36-34.816 33.792-34.816h228.352c18.432 0 33.792 15.36 33.792 33.792s-15.36 33.792-33.792 33.792h-145.408l227.328 227.328c13.312 13.312 13.312 34.816 0 48.128-13.312 14.336-34.816 14.336-48.128 1.024zM969.728 939.52h-229.376c-18.432 0-33.792-15.36-33.792-33.792s15.36-33.792 33.792-33.792h146.432l-220.16-221.184c-13.312-13.312-13.312-34.816 0-48.128 7.168-7.168 15.36-10.24 24.576-10.24s17.408 3.072 24.576 10.24l220.16 220.16v-146.432c0-18.432 15.36-33.792 33.792-33.792s33.792 15.36 33.792 33.792v229.376c0 18.432-15.36 33.792-33.792 33.792z" />
<glyph unicode="&#xe915;" glyph-name="heart-filled" d="M512 6.758c-0.026 0-0.056 0-0.087 0-22.703 0-43.429 8.463-59.196 22.406l0.095-0.083c-32.87 28.774-64.717 56.013-93.491 80.486l-9.523 8.090c-84.002 67.476-159.043 138.071-228.257 214.066l-1.426 1.588c-59.689 64.358-97.117 150.1-99.625 244.545l-0.010 0.498c-0.029 1.596-0.045 3.478-0.045 5.364 0 82.455 31.106 157.644 82.223 214.473l-0.259-0.292c51.654 56.035 125.338 91.088 207.212 91.341h2.606c62.407-0.092 119.762-21.64 165.104-57.661l-0.547 0.419c12.884-10.171 24.381-20.629 35.111-31.828l0.115-0.121c10.914 11.375 22.513 21.87 34.814 31.509l0.718 0.542c43.583 35.482 99.787 56.973 161.011 56.973 1.571 0 3.139-0.014 4.703-0.042l-0.235 0.003h2.048c81.632-0.179 155.075-35.091 206.363-90.736l0.178-0.196c50.859-56.273 81.98-131.228 81.98-213.452 0-2.178-0.022-4.352-0.065-6.52l0.005 0.324c-2.412-95.225-39.94-181.243-100.057-245.997l0.217 0.237c-70.763-77.494-145.934-148.057-226.204-212.531l-3.889-3.021c-30.72-25.907-65.638-56.115-102.4-88.166-15.641-13.798-36.31-22.221-58.946-22.221-0.085 0-0.17 0-0.255 0h0.013z" />
<glyph unicode="&#xe916;" glyph-name="heart" d="M921.6 798.208v0c-53.248 58.368-129.024 91.136-206.848 91.136-1.024 0-1.024 0-2.048 0-61.44 1.024-118.784-20.48-165.888-57.344-12.288-10.24-24.576-20.48-35.84-31.744-11.264 11.264-22.528 22.528-34.816 31.744-46.080 36.864-104.448 57.344-163.84 57.344-1.024 0-2.048 0-3.072 0-78.848 0-153.6-32.768-207.872-91.136-54.272-60.416-82.944-138.24-81.92-219.136 2.048-91.136 37.888-178.176 99.328-244.736 70.656-77.824 148.48-150.528 229.376-216.064l9.216-8.192c28.672-24.576 60.416-52.224 93.184-80.896 16.384-14.336 36.864-22.528 59.392-22.528 0 0 0 0 0 0 21.504 0 43.008 8.192 59.392 22.528 36.864 31.744 72.704 62.464 102.4 88.064 81.92 65.536 159.744 138.24 230.4 216.064 62.464 66.56 97.28 153.6 100.352 245.76 2.048 79.872-26.624 158.72-80.896 219.136zM849.92 382.464c-67.584-74.752-142.336-144.384-222.208-208.896-31.744-26.624-66.56-57.344-103.424-89.088-4.096-3.072-8.192-5.12-12.288-5.12v0c-4.096 0-8.192 1.024-11.264 4.096-32.768 28.672-65.536 56.32-94.208 80.896l-10.24 9.216c-78.848 63.488-153.6 133.12-222.208 208.896-50.176 54.272-78.848 123.904-80.896 197.632-1.024 62.464 21.504 122.88 62.464 168.96 39.936 43.008 95.232 67.584 153.6 67.584 1.024 0 1.024 0 2.048 0 43.008 0 86.016-14.336 119.808-41.984 19.456-15.36 36.864-32.768 50.176-53.248l29.696-41.984 29.696 41.984c14.336 19.456 30.72 37.888 51.2 53.248 33.792 26.624 76.8 41.984 119.808 41.984 0 0 1.024 0 1.024 0 57.344 0 114.688-23.552 154.624-67.584 41.984-47.104 63.488-106.496 62.464-168.96-1.024-73.728-29.696-143.36-79.872-197.632z" />
<glyph unicode="&#xe917;" glyph-name="instagram" d="M696.32 939.52h-368.64c-169.984 0-307.2-137.216-307.2-307.2v-368.64c0-169.984 137.216-307.2 307.2-307.2h368.64c169.984 0 307.2 137.216 307.2 307.2v368.64c0 169.984-137.216 307.2-307.2 307.2zM911.36 263.68c0-118.784-96.256-215.040-215.040-215.040h-368.64c-118.784 0-215.040 96.256-215.040 215.040v368.64c0 118.784 96.256 215.040 215.040 215.040h368.64c118.784 0 215.040-96.256 215.040-215.040v-368.64zM511.857 693.903c-136.192 0-245.76-109.568-245.76-245.76s109.568-245.76 245.76-245.76 245.76 109.568 245.76 245.76v0c0 135.168-109.568 245.76-245.76 245.76zM511.857 294.543c-84.992 0-153.6 68.608-153.6 153.6s68.608 153.6 153.6 153.6c84.992 0 153.6-68.608 153.6-153.6s-68.608-153.6-153.6-153.6zM808.991 712.008c0-18.097-14.671-32.768-32.768-32.768s-32.768 14.671-32.768 32.768c0 18.097 14.671 32.768 32.768 32.768s32.768-14.671 32.768-32.768z" />
<glyph unicode="&#xe918;" glyph-name="like" d="M800.932 766.239h-57.344c-16.384 0-28.672-13.312-28.672-28.672 0-16.384 13.312-28.672 28.672-28.672h57.344c16.384 0 28.672 13.312 28.672 28.672 0 16.384-13.312 28.672-28.672 28.672zM509.389 865.792l-28.672 57.344c-7.168 14.336-24.576 19.456-38.912 12.288s-19.456-24.576-12.288-37.888l28.672-57.344c7.168-14.336 24.576-20.48 38.912-13.312 13.312 7.168 19.456 24.576 12.288 38.912 0 0 0 0 0 0v0zM697.907 936.448c-14.336 7.168-31.744 1.024-38.912-13.312l-28.672-57.344c-7.168-14.336-1.024-31.744 13.312-38.912s30.72-1.024 37.888 12.288l28.672 57.344c8.192 15.36 2.048 32.768-12.288 39.936 0 0 0 0 0 0zM396.257 766.239h-57.344c-16.384 0-28.672-13.312-28.672-28.672 0-16.384 13.312-28.672 28.672-28.672h57.344c16.384 0 28.672 13.312 28.672 28.672 0 16.384-12.288 28.672-28.672 28.672zM223.232 476.344h-115.712c-16.384 0-28.672-13.312-28.672-28.672v0-461.824c0-16.384 13.312-28.672 28.672-28.672 0 0 0 0 0 0h115.712c16.384 0 28.672 13.312 28.672 28.672v0 460.8c0 16.384-12.288 29.696-28.672 29.696zM944.097 399.247c-7.168 45.056-46.080 77.824-92.16 76.8h-225.28c19.456 54.272 29.696 112.64 28.672 171.008-1.024 65.536-55.296 117.76-120.832 117.76h-23.552c-16.384 0-28.672-13.312-28.672-28.672v0c0-66.56-25.6-187.392-74.752-236.544-28.672-26.624-61.44-48.128-98.304-63.488v-433.152c75.776-29.696 156.672-45.056 237.568-46.080h188.416c48.128-2.048 89.088 34.816 92.16 82.944 1.024 12.288-1.024 23.552-5.12 34.816 46.080 12.288 73.728 60.416 60.416 106.496-1.024 3.072-2.048 6.144-3.072 9.216 46.080 12.288 73.728 60.416 60.416 106.496-3.072 13.312-10.24 24.576-19.456 34.816 18.432 18.432 26.624 43.008 23.552 67.584z" />
<glyph unicode="&#xe919;" glyph-name="listen" d="M512 845.312c-270.336 0-491.52-200.704-491.52-447.488v-210.944c0-44.032 38.912-78.848 86.016-78.848h28.672v263.168h-28.672c-10.24 0-19.456-2.048-28.672-5.12v30.72c0 218.112 195.584 395.264 434.176 395.264s434.176-177.152 434.176-395.264v-30.72c-9.216 3.072-19.456 5.12-28.672 5.12h-28.672v-263.168h28.672c48.128 0 86.016 35.84 86.016 78.848v210.944c0 246.784-221.184 447.488-491.52 447.488zM279.767 453.714h-28.672c-31.744 0-57.344-25.6-57.344-57.344 0 0 0 0 0 0v-287.744c0-31.744 25.6-57.344 57.344-57.344 0 0 0 0 0 0h28.672c16.384 0 28.672 13.312 28.672 28.672v0 345.088c0 16.384-13.312 28.672-28.672 28.672zM772.731 453.714h-28.672c-16.384 0-28.672-13.312-28.672-28.672v0-345.088c0-16.384 13.312-28.672 28.672-28.672v0h28.672c31.744 0 57.344 25.6 57.344 57.344 0 0 0 0 0 0v287.744c1.024 31.744-25.6 57.344-57.344 57.344 0 0 0 0 0 0zM356.495 355.389c-7.168 0-13.312-6.144-13.312-13.312v-139.264c0-7.168 6.144-13.312 13.312-13.312s13.312 6.144 13.312 13.312c0 0 0 0 0 0v139.264c0 7.168-6.144 13.312-13.312 13.312zM443.535 335.933c-7.168 0-13.312-6.144-13.312-13.312v-101.376c0-7.168 6.144-13.312 13.312-13.312s13.312 6.144 13.312 13.312v101.376c0 8.192-6.144 13.312-13.312 13.312zM529.551 315.453c-7.168 0-13.312-6.144-13.312-13.312v-60.416c0-7.168 6.144-13.312 13.312-13.312s13.312 6.144 13.312 13.312c0 0 0 0 0 0v60.416c0 7.168-6.144 13.312-13.312 13.312zM667.791 315.453v0c7.168 0 13.312-6.144 13.312-13.312v-60.416c0-7.168-6.144-13.312-13.312-13.312v0c-7.168 0-13.312 6.144-13.312 13.312v60.416c0 7.168 6.144 13.312 13.312 13.312zM486.543 420.925c-7.168 0-13.312-6.144-13.312-13.312v-271.36c0-7.168 5.12-13.312 13.312-13.312 7.168 0 13.312 5.12 13.312 13.312 0 0 0 0 0 1.024v270.336c0 7.168-6.144 13.312-13.312 13.312zM399.503 391.229c-7.168 0-13.312-6.144-13.312-13.312v-210.944c0-7.168 6.144-13.312 13.312-13.312s13.312 6.144 13.312 13.312v210.944c0 7.168-6.144 13.312-13.312 13.312zM576.655 355.389c-7.168 0-13.312-6.144-13.312-13.312v-139.264c0-7.168 6.144-13.312 13.312-13.312s13.312 6.144 13.312 13.312c0 0 0 0 0 0v139.264c0 7.168-6.144 13.312-13.312 13.312zM620.687 391.229c-7.168 0-13.312-6.144-13.312-13.312v-210.944c0-7.168 6.144-13.312 13.312-13.312s13.312 6.144 13.312 13.312v210.944c0 7.168-6.144 13.312-13.312 13.312z" />
<glyph unicode="&#xe91a;" glyph-name="map" d="M202.752 371.2c-17.408-10.24-28.672-28.672-28.672-49.152 0-31.744 25.6-57.344 57.344-57.344 24.576 0 46.080 16.384 54.272 38.912h149.504c31.744 0 57.344-25.6 57.344-57.344s-25.6-57.344-57.344-57.344h-230.4c-53.248 0-96.256-43.008-96.256-96.256s43.008-96.256 96.256-96.256h192.512c10.24 0 19.456 8.192 19.456 19.456 0 10.24-8.192 19.456-19.456 19.456h-192.512c-31.744 0-57.344 25.6-57.344 57.344s25.6 57.344 57.344 57.344h230.4c53.248 0 96.256 43.008 96.256 96.256s-43.008 96.256-96.256 96.256h-149.504c-4.096 13.312-13.312 23.552-24.576 30.72l146.432 238.592c23.552 34.816 34.816 74.752 34.816 116.736 0 115.712-94.208 210.944-210.944 210.944s-210.944-95.232-210.944-210.944c0-41.984 12.288-81.92 34.816-116.736l147.456-240.64zM231.424 301.568c-10.24 0-19.456 8.192-19.456 19.456s8.192 19.456 19.456 19.456 19.456-8.192 19.456-19.456-8.192-19.456-19.456-19.456zM231.424 901.632c95.232 0 173.056-77.824 173.056-173.056 0-34.816-10.24-67.584-28.672-96.256 0 0 0 0 0-1.024l-143.36-235.52c0 0-143.36 235.52-143.36 235.52-19.456 28.672-28.672 61.44-28.672 96.256-2.048 96.256 75.776 174.080 171.008 174.080zM231.424 632.32c53.248 0 96.256 43.008 96.256 96.256s-43.008 96.256-96.256 96.256-96.256-43.008-96.256-96.256 44.032-96.256 96.256-96.256zM231.424 785.92c31.744 0 57.344-25.6 57.344-57.344s-25.6-57.344-57.344-57.344-57.344 25.6-57.344 57.344 25.6 57.344 57.344 57.344zM792.576 621.056c-116.736 0-210.944-95.232-210.944-210.944 0-41.984 12.288-81.92 35.84-116.736l146.432-229.376c-11.264-7.168-20.48-17.408-24.576-29.696h-169.984c-10.24 0-19.456-8.192-19.456-19.456 0-10.24 8.192-19.456 19.456-19.456h167.936c8.192-22.528 29.696-37.888 54.272-37.888 31.744 0 57.344 25.6 57.344 57.344 0 20.48-11.264 38.912-27.648 49.152l146.432 229.376c23.552 34.816 35.84 74.752 35.84 116.736 0 115.712-95.232 210.944-210.944 210.944v0zM792.576-5.632c-10.24 0-19.456 8.192-19.456 19.456 0 10.24 8.192 19.456 19.456 19.456 10.24 0 19.456-8.192 19.456-19.456 0-10.24-9.216-19.456-19.456-19.456zM935.936 313.856c0 0-143.36-225.28-143.36-225.28s-143.36 225.28-143.36 225.28c-19.456 28.672-28.672 61.44-28.672 96.256 0 95.232 77.824 173.056 173.056 173.056s173.056-77.824 173.056-173.056c-1.024-34.816-11.264-67.584-30.72-96.256zM792.576 505.344c-53.248 0-96.256-43.008-96.256-96.256s43.008-96.256 96.256-96.256c53.248 0 96.256 43.008 96.256 96.256s-44.032 96.256-96.256 96.256zM792.576 351.744c-31.744 0-57.344 25.6-57.344 57.344s25.6 57.344 57.344 57.344 57.344-25.6 57.344-57.344c0-31.744-25.6-57.344-57.344-57.344zM502.784 13.824c0-10.745-8.711-19.456-19.456-19.456s-19.456 8.711-19.456 19.456c0 10.745 8.711 19.456 19.456 19.456s19.456-8.711 19.456-19.456z" />
<glyph unicode="&#xe91b;" glyph-name="menu" d="M934.912 653.824h-845.824c-37.888 0-68.608 30.72-68.608 68.608s30.72 68.608 68.608 68.608h845.824c37.888 0 68.608-30.72 68.608-68.608s-30.72-68.608-68.608-68.608zM934.912 379.392h-845.824c-37.888 0-68.608 30.72-68.608 68.608s30.72 68.608 68.608 68.608h845.824c37.888 0 68.608-30.72 68.608-68.608s-30.72-68.608-68.608-68.608zM934.912 104.96h-845.824c-37.888 0-68.608 30.72-68.608 68.608s30.72 68.608 68.608 68.608h845.824c37.888 0 68.608-30.72 68.608-68.608s-30.72-68.608-68.608-68.608z" />
<glyph unicode="&#xe91c;" glyph-name="orginal-size" d="M823.296 707.072l-158.72-158.72h108.544c21.504 0 38.912-17.408 38.912-38.912s-17.408-38.912-38.912-38.912h-144.384c-53.248 0-96.256 43.008-96.256 96.256v144.384c0 21.504 17.408 38.912 38.912 38.912s38.912-17.408 38.912-38.912v-108.544l158.72 158.72c15.36 15.36 38.912 15.36 54.272 0s15.36-38.912 0-54.272zM454.656 152.064c21.504 0 38.912 17.408 38.912 38.912v143.36c0 53.248-43.008 96.256-96.256 96.256h-144.384c-21.504 0-38.912-17.408-38.912-38.912s17.408-38.912 38.912-38.912h108.544l-158.72-157.696c-15.36-15.36-15.36-38.912 0-54.272 7.168-7.168 17.408-11.264 27.648-11.264s19.456 4.096 27.648 11.264l158.72 158.72v-108.544c-1.024-21.504 16.384-38.912 37.888-38.912zM964.608 263.68c21.504 0 38.912 17.408 38.912 38.912v483.328c0 84.992-68.608 153.6-153.6 153.6h-675.84c-84.992 0-153.6-68.608-153.6-153.6v-675.84c0-84.992 68.608-153.6 153.6-153.6h675.84c84.992 0 153.6 68.608 153.6 153.6 0 21.504-17.408 38.912-38.912 38.912s-38.912-17.408-38.912-38.912c0-41.984-34.816-76.8-76.8-76.8h-674.816c-41.984 0-76.8 34.816-76.8 76.8v675.84c0 41.984 34.816 76.8 76.8 76.8h675.84c41.984 0 76.8-34.816 76.8-76.8v-483.328c0-21.504 17.408-38.912 37.888-38.912z" />
<glyph unicode="&#xe91d;" glyph-name="pause" d="M512-43.52c-65.536 0-131.072 13.312-191.488 38.912-58.368 24.576-111.616 60.416-156.672 105.472s-80.896 98.304-105.472 156.672c-24.576 59.392-37.888 124.928-37.888 190.464s13.312 131.072 38.912 191.488c24.576 58.368 60.416 111.616 105.472 156.672s98.304 80.896 156.672 105.472c59.392 24.576 124.928 37.888 190.464 37.888s131.072-13.312 191.488-38.912c58.368-24.576 111.616-60.416 156.672-105.472s80.896-98.304 105.472-156.672c24.576-59.392 37.888-124.928 37.888-190.464s-13.312-131.072-38.912-191.488c-24.576-58.368-60.416-111.616-105.472-156.672s-98.304-80.896-156.672-105.472c-59.392-24.576-124.928-37.888-190.464-37.888zM626.688 688.64c-27.648 0-49.152-22.528-49.152-49.152v-386.048c0-27.648 22.528-49.152 49.152-49.152 27.648 0 49.152 22.528 49.152 49.152v385.024c1.024 27.648-21.504 50.176-49.152 50.176v0zM387.072 688.64c-27.648 0-49.152-22.528-49.152-49.152v-386.048c0-27.648 22.528-49.152 49.152-49.152 27.648 0 49.152 22.528 49.152 49.152v385.024c0 27.648-22.528 50.176-49.152 50.176z" />
<glyph unicode="&#xe91e;" glyph-name="play" d="M512 939.52c-271.36 0-491.52-220.16-491.52-491.52s220.16-491.52 491.52-491.52 491.52 220.16 491.52 491.52c0 271.36-220.16 491.52-491.52 491.52zM713.728 441.856c-1.024-2.048-2.048-2.048-4.096-4.096l-323.584-195.584c-5.12-3.072-11.264-1.024-14.336 4.096-1.024 2.048-2.048 4.096-1.024 5.12v392.192c0 6.144 4.096 10.24 10.24 11.264 2.048 0 4.096 0 5.12-2.048l324.608-195.584c4.096-3.072 6.144-10.24 3.072-15.36z" />
<glyph unicode="&#xe91f;" glyph-name="routes" d="M1003.52 448c0 271.36-220.16 491.52-491.52 491.52s-491.52-220.16-491.52-491.52c0-181.248 98.304-338.944 244.736-423.936 0 0 0 0 0 0 72.704-41.984 156.672-67.584 246.784-67.584v0c0 0 0 0 0 0s0 0 0 0v0c227.328 0 417.792 155.648 474.112 365.568l-24.576 6.144c-30.72 8.192-73.728 19.456-122.88 33.792s-106.496 30.72-166.912 49.152c-29.696 9.216-60.416 19.456-90.112 29.696-30.72 10.24-60.416 21.504-90.112 33.792-14.336 6.144-28.672 12.288-43.008 18.432s-27.648 13.312-39.936 20.48c-3.072 2.048-6.144 3.072-9.216 5.12l-8.192 6.144c-3.072 2.048-5.12 4.096-8.192 6.144-1.024 1.024-2.048 2.048-4.096 3.072-1.024 1.024-3.072 2.048-4.096 3.072l-3.072 3.072c-1.024 1.024-2.048 2.048-3.072 3.072l-2.048 2.048-1.024 2.048c-1.024 1.024-2.048 2.048-3.072 3.072l-4.096 6.144c0 1.024 0 1.024-1.024 2.048v5.12c0 5.12 0 10.24 2.048 14.336 2.048 5.12 5.12 9.216 8.192 13.312 8.192 8.192 16.384 16.384 26.624 22.528 5.12 3.072 10.24 6.144 15.36 9.216s11.264 6.144 16.384 8.192 22.528 10.24 32.768 14.336c21.504 8.192 43.008 15.36 61.44 21.504s35.84 10.24 50.176 14.336 25.6 6.144 32.768 8.192c3.072 1.024 15.36 4.096 28.672 7.168 22.528 6.144 50.176 13.312 51.2 13.312-1.024 0-27.648-7.168-51.2-13.312-14.336-4.096-26.624-7.168-28.672-7.168-7.168-2.048-18.432-5.12-31.744-9.216s-29.696-9.216-48.128-15.36c-18.432-6.144-38.912-13.312-59.392-22.528-10.24-4.096-20.48-9.216-30.72-14.336-5.12-3.072-10.24-5.12-15.36-8.192s-10.24-6.144-14.336-9.216-16.384-13.312-23.552-21.504c-6.144-7.168-8.192-15.36-7.168-24.576v-3.072l1.024-2.048c0-1.024 0-1.024 1.024-2.048l4.096-6.144c1.024-1.024 2.048-2.048 2.048-3.072l1.024-1.024c0 0 1.024-1.024 1.024-1.024s2.048-2.048 3.072-3.072l3.072-3.072c1.024-1.024 2.048-2.048 3.072-3.072s2.048-2.048 4.096-3.072 5.12-3.072 8.192-5.12l4.096-3.072 4.096-2.048c3.072-2.048 6.144-3.072 9.216-5.12 12.288-6.144 25.6-12.288 39.936-18.432s28.672-11.264 43.008-17.408c29.696-11.264 60.416-21.504 91.136-30.72s61.44-18.432 91.136-27.648c60.416-17.408 117.76-31.744 168.96-45.056s93.184-23.552 124.928-30.72l11.264-3.072c3.072 16.384 6.144 33.792 7.168 51.2 0 0 0 0 0 0 3.072 18.432 4.096 34.816 4.096 51.2zM576.512 692.736c0 0-377.856-64.512-249.856-171.008s474.112-192.512 529.408-272.384c57.344-81.92-67.584-164.864-281.6-198.656-60.416-9.216-139.264-16.384-225.28-21.504-167.936 64.512-287.744 228.352-287.744 418.816 0 248.832 201.728 450.56 450.56 450.56 132.096 0 249.856-57.344 332.8-147.456l-268.288-58.368zM960.512 406.016c-137.216 23.552-557.056 103.424-532.48 172.032 22.528 63.488 348.16 153.6 416.768 172.032 72.704-79.872 117.76-185.344 117.76-302.080 0-14.336-1.024-27.648-2.048-41.984z" />
<glyph unicode="&#xe920;" glyph-name="search" d="M880.64 607.744c-30.72 185.344-191.488 328.704-385.024 331.776 193.536-3.072 354.304-146.432 385.024-331.776zM488.448 134.656c-219.136 0-397.312 178.176-397.312 397.312v10.24c0 219.136 178.176 397.312 397.312 397.312 0 0 0 0 0 0-219.136 0-397.312-178.176-397.312-397.312v-10.24c0-220.16 178.176-397.312 397.312-397.312 67.584 0 131.072 16.384 186.368 46.080 0 0 0 0 0 0-55.296-29.696-118.784-46.080-186.368-46.080zM885.76 531.968c0-23.552-2.048-47.104-6.144-70.656 4.096 22.528 6.144 46.080 6.144 70.656v10.24c0 22.528-2.048 44.032-6.144 65.536 3.072-21.504 6.144-43.008 6.144-65.536v-10.24zM488.448 939.52c0 0 0 0 0 0 2.048 0 4.096 0 6.144 0-1.024 0-3.072 0-6.144 0zM919.552 44.544l-151.552 181.248c-4.096 4.096-8.192 8.192-13.312 11.264 64.512 57.344 109.568 136.192 124.928 225.28 4.096 22.528 6.144 46.080 6.144 70.656v10.24c0 22.528-2.048 44.032-6.144 65.536-29.696 184.32-190.464 327.68-384 330.752-2.048 0-4.096 0-6.144 0-220.16 0-398.336-178.176-398.336-397.312v-10.24c0-219.136 178.176-397.312 397.312-397.312 67.584 0 131.072 17.408 186.368 47.104 0 0 0 0 0 0 2.048-8.192 5.12-16.384 10.24-23.552l152.576-181.248c10.24-12.288 25.6-19.456 40.96-19.456 12.288 0 24.576 4.096 34.816 12.288 22.528 18.432 25.6 52.224 6.144 74.752zM198.656 531.968v10.24c0 159.744 130.048 290.816 290.816 290.816s290.816-130.048 290.816-290.816v-10.24c0-159.744-130.048-290.816-290.816-290.816s-290.816 130.048-290.816 290.816z" />
<glyph unicode="&#xe921;" glyph-name="see" d="M514.345 128.819c-346.112 0-490.496 329.728-492.544 332.8-3.072 7.168-3.072 15.36 1.024 22.528 6.144 11.264 156.672 283.648 491.52 283.648s480.256-272.384 486.4-283.648c3.072-7.168 4.096-14.336 1.024-21.504-2.048-4.096-143.36-333.824-487.424-333.824zM75.049 469.811c27.648-56.32 158.72-289.792 439.296-289.792 278.528 0 407.552 235.52 434.176 290.816-29.696 49.152-163.84 245.76-434.176 245.76-266.24 0-408.576-197.632-439.296-246.784zM514.345 210.739c-149.504 0-271.36 121.856-271.36 271.36s121.856 271.36 271.36 271.36c149.504 0 271.36-121.856 271.36-271.36s-120.832-270.336-271.36-271.36zM514.345 702.259c-121.856 0-220.16-98.304-220.16-220.16s98.304-220.16 220.16-220.16c121.856 0 220.16 98.304 220.16 220.16s-98.304 220.16-220.16 220.16zM514.345 600.883c-7.168 0-14.336-1.024-21.504-2.048 27.648-30.72 25.6-76.8-4.096-105.472-25.6-23.552-64.512-26.624-93.184-6.144 0-2.048 0-4.096 0-6.144 0-65.536 53.248-118.784 118.784-118.784s118.784 53.248 118.784 118.784c1.024 66.56-52.224 119.808-118.784 119.808v0z" />
<glyph unicode="&#xe922;" glyph-name="smell" d="M318.034 101.847c-13.312-22.528-53.248-22.528-88.064-1.024s-53.248 56.32-39.936 78.848c13.312 22.528 53.248 22.528 88.064 1.024 35.84-21.504 53.248-57.344 39.936-78.848zM301.65-1.577c-80.896 0-152.576 22.528-203.776 66.56-49.152 40.96-75.776 102.4-74.752 165.888 0 81.92 53.248 158.72 136.192 196.608 48.128 22.528 76.8 48.128 88.064 122.88 53.248 349.184 178.176 389.12 267.264 389.12 177.152 0 232.448-196.608 262.144-389.12 11.264-73.728 43.008-102.4 88.064-122.88 82.944-37.888 136.192-114.688 136.192-196.608 1.024-63.488-25.6-124.928-74.752-165.888-65.536-56.32-165.888-77.824-276.48-60.416-14.336 2.048-24.576 16.384-22.528 30.72s16.384 24.576 30.72 22.528c93.184-14.336 180.224 3.072 232.448 48.128 36.864 30.72 57.344 76.8 55.296 124.928 0 60.416-40.96 118.784-104.448 147.456-70.656 31.744-105.472 80.896-118.784 163.84-47.104 303.104-132.096 343.040-208.896 343.040-143.36 0-189.44-183.296-214.016-343.040-14.336-97.28-58.368-136.192-118.784-163.84-63.488-28.672-104.448-87.040-104.448-147.456-1.024-48.128 19.456-94.208 55.296-124.928 53.248-45.056 140.288-63.488 232.448-48.128 14.336 2.048 28.672-7.168 30.72-22.528 2.048-14.336-7.168-28.672-22.528-30.72-21.504-4.096-46.080-6.144-70.656-6.144zM706.13 101.847c13.312-22.528 53.248-22.528 88.064-1.024s53.248 56.32 39.936 78.848c-13.312 22.528-53.248 22.528-88.064 1.024s-53.248-57.344-39.936-78.848zM511.57-43.561h-3.072c-67.584 1.024-130.048 32.768-169.984 88.064l-8.192 10.24c-24.576 34.816-48.128 66.56-96.256 89.088-13.312 6.144-19.456 21.504-14.336 35.84 6.144 13.312 21.504 19.456 35.84 14.336 0 0 1.024 0 1.024 0 61.44-28.672 91.136-69.632 117.76-106.496l7.168-10.24c29.696-40.96 76.8-64.512 126.976-65.536h2.048c49.152 0 95.232 22.528 124.928 60.416 4.096 5.12 8.192 10.24 12.288 16.384 27.648 36.864 58.368 77.824 119.808 105.472 13.312 6.144 29.696 0 35.84-14.336 6.144-13.312 0-28.672-13.312-34.816-48.128-22.528-72.704-55.296-99.328-89.088-4.096-5.12-8.192-11.264-12.288-16.384-39.936-53.248-102.4-82.944-166.912-82.944z" />
<glyph unicode="&#xe923;" glyph-name="taste" d="M835.871 704.891l-16.384 54.272c-21.504 62.464-89.088 95.232-150.528 74.752-34.816-12.288-62.464-38.912-74.752-74.752l-16.384-54.272c-14.336-46.080-17.408-95.232-8.192-142.336 7.168-39.936 32.768-74.752 68.608-93.184l-18.432-416.768c-2.048-23.552 5.12-46.080 20.48-63.488 33.792-36.864 91.136-39.936 128-6.144 2.048 2.048 4.096 4.096 6.144 6.144 15.36 16.384 22.528 38.912 20.48 62.464l-18.432 417.792c35.84 19.456 61.44 53.248 68.608 93.184 7.168 47.104 4.096 96.256-9.216 142.336zM792.863 571.771c-5.12-28.672-25.6-52.224-54.272-61.44-10.24-4.096-17.408-14.336-16.384-25.6l19.456-437.248c1.024-8.192-2.048-17.408-8.192-23.552-15.36-15.36-40.96-15.36-56.32 0-6.144 7.168-9.216 16.384-7.168 25.6l19.456 435.2c0 11.264-6.144 21.504-16.384 25.6-27.648 9.216-48.128 32.768-54.272 61.44-7.168 39.936-4.096 79.872 7.168 118.784l16.384 54.272c13.312 34.816 51.2 52.224 86.016 39.936 18.432-7.168 32.768-21.504 39.936-39.936l16.384-54.272c13.312-38.912 15.36-79.872 8.192-118.784v0zM434.463 840.059c-14.336 0-25.6-11.264-25.6-25.6 0 0 0 0 0 0v-222.208l-69.632-69.632c-5.12-5.12-8.192-12.288-7.168-19.456l22.528-453.632c1.024-10.24-3.072-19.456-10.24-26.624-14.336-14.336-36.864-14.336-51.2 0v0c-7.168 7.168-10.24 16.384-10.24 26.624l22.528 453.632c0 7.168-2.048 14.336-7.168 19.456l-70.656 69.632v222.208c0 14.336-11.264 25.6-25.6 25.6s-25.6-11.264-25.6-25.6c0 0 0 0 0 0v-233.472c0-7.168 3.072-13.312 7.168-18.432l69.632-69.632-22.528-442.368c-4.096-48.128 31.744-90.112 79.872-94.208s90.112 31.744 94.208 79.872c0 2.048 0 4.096 0 5.12 0 3.072 0 6.144 0 8.192l-22.528 442.368 69.632 69.632c5.12 5.12 7.168 11.264 7.168 18.432v234.496c1.024 14.336-10.24 25.6-24.576 25.6zM278.815 840.059c-14.336 0-25.6-11.264-25.6-25.6 0 0 0 0 0 0v-206.848c0-14.336 12.288-25.6 26.624-25.6s24.576 11.264 25.6 25.6v206.848c-1.024 14.336-12.288 25.6-26.624 25.6v0zM356.639 840.059c-14.336 0-25.6-11.264-25.6-25.6 0 0 0 0 0 0v-206.848c0-14.336 11.264-25.6 25.6-25.6s25.6 11.264 25.6 25.6c0 0 0 0 0 0v206.848c0 14.336-11.264 25.6-25.6 25.6zM591.135-11.909c-1.024 13.312-13.312 23.552-26.624 22.528 0 0 0 0 0 0h-1.024c-34.816-4.096-69.632-4.096-104.448 0-13.312 2.048-25.6-7.168-27.648-20.48s7.168-25.6 20.48-27.648c0 0 1.024 0 1.024 0 37.888-4.096 76.8-4.096 115.712 0 14.336 0 24.576 12.288 22.528 25.6 0 0 0 0 0 0zM887.071 765.307c-9.216 10.24-24.576 11.264-34.816 3.072v0c-10.24-9.216-11.264-24.576-3.072-34.816 0 0 0 0 0 0 148.48-176.128 136.192-435.2-25.6-598.016-9.216-9.216-9.216-25.6 0-34.816s25.6-9.216 34.816 0c181.248 180.224 193.536 468.992 28.672 664.576zM627.999 926.075c-96.256 22.528-196.608 16.384-288.768-17.408-12.288-5.12-19.456-18.432-14.336-31.744 5.12-12.288 18.432-19.456 31.744-14.336 82.944 30.72 174.080 36.864 260.096 16.384 13.312-3.072 26.624 5.12 29.696 17.408s-5.12 25.6-18.432 29.696c0 0 0 0 0 0v0zM198.943 136.571c-153.6 153.6-172.032 396.288-44.032 571.392 8.192 11.264 6.144 26.624-4.096 34.816-11.264 8.192-26.624 6.144-34.816-4.096 0 0 0 0 0 0v-1.024c-142.336-195.584-120.832-463.872 49.152-634.88 9.216-10.24 24.576-10.24 34.816-1.024s9.216 24.576-1.024 34.816c1.024 0 0 0 0 0v0z" />
<glyph unicode="&#xe924;" glyph-name="touch" d="M435.548 939.848c-98.304 0-178.176-79.872-179.2-179.2 0-30.72 8.192-60.416 23.552-86.016 6.144-11.264 19.456-15.36 29.696-9.216 11.264 6.144 15.36 19.456 9.216 29.696 0 0 0 1.024-1.024 1.024-11.264 19.456-17.408 41.984-17.408 64.512 0 73.728 59.392 134.144 134.144 134.144s134.144-59.392 134.144-134.144c0 0 0 0 0 0 0-12.288-2.048-23.552-5.12-34.816-3.072-12.288 4.096-24.576 15.36-27.648s23.552 3.072 27.648 15.36c0 0 0 0 0 1.024 4.096 15.36 7.168 30.72 7.168 47.104 1.024 97.28-78.848 178.176-178.176 178.176zM837.98 537.416c-17.408 0-34.816-5.12-50.176-15.36-16.384 46.080-67.584 70.656-113.664 54.272-7.168-2.048-14.336-6.144-20.48-10.24-12.288 35.84-46.080 59.392-83.968 59.392-15.36 0-30.72-4.096-45.056-12.288v147.456c0 49.152-39.936 89.088-89.088 89.088s-89.088-39.936-89.088-89.088v-379.904l-77.824 58.368c-46.080 34.816-111.616 29.696-152.576-11.264-26.624-26.624-26.624-68.608 0-95.232l318.464-318.464c37.888-37.888 89.088-59.392 142.336-58.368h104.448c135.168 0 245.76 110.592 245.76 245.76v245.76c0 50.176-39.936 90.112-89.088 90.112zM883.036 202.568c0-110.592-90.112-200.704-200.704-200.704h-104.448c-41.984 0-80.896 16.384-110.592 46.080l-318.464 318.464c-9.216 9.216-9.216 22.528 0 31.744 25.6 25.6 65.536 27.648 94.208 6.144l113.664-84.992c10.24-7.168 23.552-5.12 31.744 4.096 3.072 4.096 4.096 8.192 4.096 13.312v423.936c0 24.576 20.48 45.056 45.056 45.056s45.056-20.48 45.056-45.056v-334.848c0-12.288 10.24-22.528 22.528-22.528s22.528 10.24 22.528 22.528v111.616c0 24.576 20.48 45.056 45.056 45.056s45.056-20.48 45.056-45.056v-111.616c0-12.288 10.24-22.528 22.528-22.528s22.528 10.24 22.528 22.528v66.56c0 24.576 20.48 44.032 45.056 44.032s44.032-19.456 44.032-44.032v-66.56c0-12.288 10.24-22.528 22.528-22.528s22.528 10.24 22.528 22.528v22.528c0 24.576 20.48 45.056 45.056 45.056s45.056-20.48 45.056-45.056l-4.096-245.76z" />
<glyph unicode="&#xe925;" glyph-name="twitter" d="M1003.52 733.696l-92.16-19.456 90.112 76.8-129.024-25.6c-150.528 182.272-454.656 33.792-404.48-197.632-59.392 41.984-161.792 56.32-235.52 90.112-101.376 46.080-90.112 97.28-96.256 72.704-102.4-362.496 222.208-488.448 222.208-488.448-105.472-49.152-223.232-64.512-337.92-43.008 361.472-354.304 979.968-29.696 901.12 465.92l81.92 68.608z" />
<glyph unicode="&#xe926;" glyph-name="view" d="M512 939.52c-271.459 0-491.52-220.061-491.52-491.52s220.061-491.52 491.52-491.52c271.459 0 491.52 220.061 491.52 491.52v0c0 271.459-220.061 491.52-491.52 491.52v0zM512 171.52c-152.696 0-276.48 123.784-276.48 276.48s123.784 276.48 276.48 276.48v0c11.265-0.458 21.848-1.558 32.222-3.277l-1.502 0.205c-70.612-14.791-122.88-76.54-122.88-150.497 0-84.831 68.769-153.6 153.6-153.6 84.82 0 153.582 68.751 153.6 153.567v0.002c-0.147 25.697-6.688 49.834-18.111 70.943l0.395-0.799c48.572-49.774 78.534-117.9 78.534-193.025 0-152.477-123.431-276.126-275.825-276.479h-0.034z" />
<glyph unicode="&#xe927;" glyph-name="weather-cloudy" d="M228.352 102.912h453.632c112.64 0 207.872 97.28 207.872 212.992 0 16.384-3.072 32.768-6.144 49.152 69.632 18.432 119.808 80.896 119.808 153.6 0 83.968-64.512 152.576-148.48 159.744-20.48 66.56-82.944 114.688-153.6 114.688-73.728 0-136.192-51.2-154.624-120.832-17.408 5.12-34.816 8.192-53.248 8.192-97.28 0-180.224-67.584-201.728-160.768-20.48 7.168-41.984 10.24-62.464 10.24-113.664-2.048-208.896-99.328-208.896-214.016s95.232-212.992 207.872-212.992zM701.44 755.2c58.368 0 108.544-40.96 120.832-98.304 2.048-9.216 11.264-15.36 21.504-15.36 67.584 0 122.88-55.296 122.88-122.88 0-56.32-39.936-105.472-94.208-118.784-31.744 70.656-99.328 122.88-178.176 126.976-16.384 58.368-58.368 105.472-110.592 131.072 11.264 56.32 59.392 97.28 117.76 97.28zM228.352 491.008c23.552 0 47.104-5.12 69.632-15.36 5.12-2.048 12.288-2.048 17.408 1.024s9.216 8.192 9.216 14.336c9.216 86.016 81.92 151.552 167.936 151.552 80.896 0 150.528-57.344 166.912-136.192 2.048-9.216 9.216-15.36 19.456-15.36 1.024 0 3.072 0 3.072 0 92.16 0 169.984-79.872 169.984-175.104s-77.824-175.104-169.984-175.104h-453.632c-92.16 0-169.984 79.872-169.984 175.104s77.824 175.104 169.984 175.104z" />
<glyph unicode="&#xe928;" glyph-name="weather-foggy" d="M41.984 363.008c12.288 0 21.504 9.216 21.504 21.504 0 109.568 88.064 202.752 192.512 202.752 26.624 0 53.248-6.144 78.848-17.408 6.144-3.072 13.312-2.048 19.456 1.024s10.24 9.216 10.24 16.384c11.264 97.28 92.16 171.008 190.464 171.008 91.136 0 169.984-64.512 188.416-154.624 2.048-10.24 11.264-16.384 21.504-17.408 2.048 0 3.072 0 4.096 0 104.448 0 192.512-93.184 192.512-202.752 0-12.288 9.216-21.504 21.504-21.504s21.504 9.216 21.504 21.504c0 129.024-100.352 238.592-222.208 245.76-28.672 100.352-120.832 171.008-226.304 171.008-110.592 0-203.776-76.8-228.352-182.272-23.552 7.168-47.104 11.264-70.656 11.264-126.976 0-235.52-112.64-235.52-245.76-1.024-11.264 8.192-20.48 20.48-20.48zM41.984 266.752h940.032c12.288 0 21.504 9.216 21.504 21.504s-9.216 21.504-21.504 21.504h-940.032c-12.288 0-21.504-9.216-21.504-21.504s9.216-21.504 21.504-21.504zM41.984 180.736h940.032c12.288 0 21.504 9.216 21.504 21.504s-9.216 21.504-21.504 21.504h-940.032c-12.288 0-21.504-9.216-21.504-21.504s9.216-21.504 21.504-21.504zM41.984 95.744h940.032c12.288 0 21.504 9.216 21.504 21.504s-9.216 21.504-21.504 21.504h-940.032c-12.288 0-21.504-9.216-21.504-21.504s9.216-21.504 21.504-21.504z" />
<glyph unicode="&#xe929;" glyph-name="weather-partly-cloudy" d="M627.712 747.008c9.216 0 17.408 7.168 17.408 17.408v0 68.608c0 9.216-7.168 17.408-17.408 17.408-9.216 0-17.408-7.168-17.408-17.408 0 0 0 0 0 0v-68.608c0-9.216 7.168-17.408 17.408-17.408zM986.112 491.008h-68.608c-9.216 0-17.408-7.168-17.408-17.408s7.168-17.408 17.408-17.408v0h68.608c9.216 0 17.408 7.168 17.408 17.408s-7.168 17.408-17.408 17.408zM618.496 46.592c106.496 2.048 190.464 89.088 188.416 195.584-1.024 41.984-15.36 81.92-40.96 114.688 81.92 72.704 90.112 197.632 17.408 280.576s-197.632 90.112-280.576 17.408c-26.624-23.552-46.080-53.248-57.344-86.016-87.040-1.024-161.792-61.44-180.224-145.408-18.432 6.144-37.888 9.216-57.344 9.216-106.496-3.072-190.464-92.16-187.392-198.656 3.072-102.4 84.992-185.344 187.392-187.392h410.624zM633.856 670.208c91.136 0 164.864-72.704 164.864-163.84 0-47.104-20.48-93.184-56.32-123.904-30.72 29.696-70.656 47.104-113.664 50.176-19.456 68.608-76.8 120.832-147.456 134.144 24.576 61.44 84.992 103.424 152.576 103.424v0zM54.272 239.104c0 86.016 67.584 156.672 153.6 158.72 21.504 0 43.008-5.12 63.488-14.336 8.192-4.096 18.432 0 22.528 8.192 1.024 2.048 1.024 3.072 1.024 5.12 9.216 83.968 84.992 145.408 168.96 136.192 66.56-7.168 120.832-56.32 134.144-122.88 2.048-9.216 11.264-15.36 20.48-13.312 0 0 0 0 0 0 88.064-3.072 156.672-75.776 153.6-163.84-3.072-83.968-69.632-151.552-153.6-153.6h-410.624c-84.992 3.072-153.6 73.728-153.6 159.744zM417.792 670.208c7.168-7.168 17.408-7.168 24.576 0s7.168 17.408 0 24.576l-48.128 48.128c-7.168 6.144-17.408 6.144-24.576-1.024-6.144-6.144-6.144-16.384 0-23.552l48.128-48.128zM841.728 665.088c4.096 0 9.216 2.048 12.288 5.12l48.128 48.128c7.168 6.144 7.168 17.408 1.024 24.576s-17.408 7.168-24.576 1.024c0 0-1.024-1.024-1.024-1.024l-48.128-49.152c-7.168-7.168-7.168-17.408 0-24.576 3.072-3.072 7.168-4.096 12.288-4.096v0zM848.896 307.712l48.128-48.128c6.144-7.168 17.408-7.168 24.576-1.024s7.168 17.408 1.024 24.576c0 0-1.024 1.024-1.024 1.024l-48.128 48.128c-7.168 7.168-17.408 7.168-24.576 0s-6.144-18.432 0-24.576z" />
<glyph unicode="&#xe92a;" glyph-name="weather-pouring" d="M765.952 780.8c-26.624 93.184-111.616 158.72-209.92 158.72-102.4 0-188.416-70.656-210.944-168.96-21.504 7.168-44.032 10.24-65.536 10.24-117.76 0-217.088-104.448-217.088-229.376 0-123.904 99.328-229.376 217.088-229.376h474.112c117.76 0 217.088 104.448 217.088 229.376 1.024 120.832-92.16 223.232-204.8 229.376zM754.688 363.008h-475.136c-95.232 0-178.176 88.064-178.176 189.44s82.944 189.44 178.176 189.44c24.576 0 49.152-5.12 72.704-16.384 6.144-3.072 12.288-2.048 18.432 1.024 5.12 3.072 9.216 9.216 10.24 15.36 10.24 90.112 86.016 158.72 176.128 158.72 83.968 0 157.696-60.416 174.080-142.336 2.048-9.216 10.24-16.384 19.456-16.384 2.048 0 3.072 0 4.096 0 94.208 0 177.152-89.088 177.152-189.44 0-101.376-82.944-189.44-177.152-189.44zM299.008-38.4c4.096-4.096 9.216-5.12 13.312-5.12 5.12 0 10.24 2.048 14.336 6.144l124.928 129.024c5.12 6.144 7.168 14.336 4.096 21.504s-10.24 12.288-18.432 12.288h-48.128l78.848 73.728c8.192 7.168 8.192 19.456 1.024 27.648s-20.48 8.192-27.648 1.024l-114.688-107.52c-6.144-5.12-8.192-14.336-5.12-21.504s10.24-12.288 18.432-12.288h51.2l-93.184-96.256c-7.168-8.192-7.168-20.48 1.024-28.672zM619.52 115.2l98.304 98.304c8.192 8.192 8.192 20.48 0 27.648s-20.48 8.192-27.648 0l-98.304-98.304c-8.192-8.192-8.192-20.48 0-27.648 4.096-4.096 9.216-6.144 14.336-6.144s10.24 2.048 13.312 6.144zM521.216 15.872l39.936 39.936c8.192 8.192 8.192 20.48 0 27.648-8.192 8.192-20.48 8.192-27.648 0l-39.936-39.936c-8.192-8.192-8.192-20.48 0-27.648 4.096-4.096 9.216-6.144 14.336-6.144 4.096 0 9.216 2.048 13.312 6.144zM185.344 115.2l98.304 98.304c8.192 8.192 8.192 20.48 0 27.648s-20.48 8.192-27.648 0l-98.304-98.304c-8.192-8.192-8.192-20.48 0-27.648 4.096-4.096 9.216-6.144 14.336-6.144 4.096 0 9.216 2.048 13.312 6.144zM86.016 15.872l39.936 39.936c8.192 8.192 8.192 20.48 0 27.648-8.192 8.192-20.48 8.192-27.648 0l-39.936-39.936c-8.192-8.192-8.192-20.48 0-27.648 3.072-4.096 8.192-6.144 13.312-6.144s10.24 2.048 14.336 6.144z" />
<glyph unicode="&#xe92b;" glyph-name="weather-rainy" d="M1003.52 518.656c0 121.856-95.232 226.304-210.944 232.448-26.624 95.232-114.688 162.816-215.040 162.816-104.448 0-193.536-72.704-216.064-173.056-21.504 7.168-45.056 10.24-67.584 10.24-120.832 0-223.232-106.496-223.232-233.472s102.4-233.472 223.232-233.472h486.4c120.832 2.048 223.232 108.544 223.232 234.496zM111.616 518.656c0 104.448 83.968 192.512 182.272 192.512 25.6 0 51.2-5.12 74.752-16.384 6.144-3.072 12.288-2.048 18.432 1.024s9.216 9.216 10.24 15.36c10.24 92.16 88.064 162.816 180.224 162.816 87.040 0 161.792-61.44 179.2-146.432 2.048-9.216 9.216-16.384 20.48-16.384 1.024 0 3.072 0 3.072 0 99.328 0 182.272-88.064 182.272-192.512s-83.968-192.512-182.272-192.512h-486.4c-98.304 0-182.272 88.064-182.272 192.512zM258.048 218.624c-8.192 8.192-20.48 8.192-28.672 0l-101.376-101.376c-8.192-8.192-8.192-20.48 0-28.672 4.096-4.096 9.216-6.144 14.336-6.144s10.24 2.048 14.336 6.144l101.376 101.376c7.168 8.192 7.168 21.504 0 28.672zM419.84 218.624c-8.192 8.192-20.48 8.192-28.672 0l-101.376-101.376c-8.192-8.192-8.192-20.48 0-28.672 4.096-4.096 9.216-6.144 14.336-6.144s10.24 2.048 14.336 6.144l101.376 101.376c8.192 8.192 8.192 21.504 0 28.672zM581.632 218.624c-8.192 8.192-20.48 8.192-28.672 0l-101.376-101.376c-8.192-8.192-8.192-20.48 0-28.672 4.096-4.096 9.216-6.144 14.336-6.144s10.24 2.048 14.336 6.144l101.376 101.376c8.192 8.192 8.192 21.504 0 28.672zM715.776 218.624l-101.376-100.352c-8.192-8.192-8.192-20.48 0-28.672 4.096-4.096 9.216-6.144 14.336-6.144s10.24 2.048 14.336 6.144l101.376 101.376c8.192 8.192 8.192 20.48 0 28.672-8.192 7.168-20.48 7.168-28.672-1.024zM552.96 56.832l-40.96-40.96c-8.192-8.192-8.192-20.48 0-28.672 4.096-4.096 9.216-6.144 14.336-6.144s10.24 2.048 14.336 6.144l40.96 40.96c8.192 8.192 8.192 20.48 0 28.672-7.168 8.192-20.48 8.192-28.672 0zM391.168 56.832l-40.96-40.96c-8.192-8.192-8.192-20.48 0-28.672 4.096-4.096 9.216-6.144 14.336-6.144s10.24 2.048 14.336 6.144l40.96 40.96c8.192 8.192 8.192 20.48 0 28.672s-20.48 8.192-28.672 0zM229.376 56.832l-40.96-40.96c-8.192-8.192-8.192-20.48 0-28.672 4.096-4.096 9.216-6.144 14.336-6.144s10.24 2.048 14.336 6.144l40.96 40.96c8.192 8.192 8.192 20.48 0 28.672s-21.504 8.192-28.672 0zM66.56 56.832l-40.96-40.96c-8.192-8.192-8.192-20.48 0-28.672 5.12-3.072 10.24-5.12 15.36-5.12s10.24 2.048 14.336 6.144l40.96 40.96c8.192 8.192 8.192 20.48 0 28.672-8.192 7.168-21.504 7.168-29.696-1.024z" />
<glyph unicode="&#xe92c;" glyph-name="weather-sleet" d="M359.424 239.104c0 11.264-9.216 19.456-19.456 19.456-11.264 0-19.456-9.216-19.456-19.456v-158.72c0-11.264 9.216-19.456 19.456-19.456 11.264 0 19.456 9.216 19.456 19.456v158.72zM598.016 239.104c0 11.264-9.216 19.456-19.456 19.456-11.264 0-19.456-9.216-19.456-19.456v-158.72c0-11.264 9.216-19.456 19.456-19.456 11.264 0 19.456 9.216 19.456 19.456v158.72zM479.232 239.104c0 11.264-9.216 19.456-19.456 19.456-11.264 0-19.456-9.216-19.456-19.456v-79.872c0-11.264 9.216-19.456 19.456-19.456 11.264 0 19.456 9.216 19.456 19.456v79.872zM717.824 239.104c0 11.264-9.216 19.456-19.456 19.456-11.264 0-19.456-9.216-19.456-19.456v-79.872c0-11.264 9.216-19.456 19.456-19.456 11.264 0 19.456 9.216 19.456 19.456v79.872zM969.728 549.376c0 120.832-94.208 224.256-206.848 230.4-26.624 93.184-112.64 159.744-210.944 159.744-102.4 0-189.44-71.68-211.968-169.984-21.504 7.168-44.032 10.24-66.56 10.24-118.784 0-219.136-105.472-219.136-230.4s100.352-230.4 219.136-230.4h477.184c118.784 0 219.136 105.472 219.136 230.4zM94.208 549.376c0 101.376 83.968 191.488 179.2 191.488 24.576 0 50.176-5.12 73.728-16.384 6.144-3.072 12.288-2.048 18.432 1.024 5.12 3.072 9.216 9.216 10.24 15.36 10.24 91.136 86.016 159.744 177.152 159.744 84.992 0 158.72-60.416 175.104-143.36 2.048-9.216 10.24-15.36 20.48-16.384 1.024 0 3.072 0 3.072 0 95.232 0 179.2-89.088 179.2-191.488s-83.968-191.488-179.2-191.488h-478.208c-95.232 1.024-179.2 90.112-179.2 191.488zM475.136 55.808c0-10.745-8.711-19.456-19.456-19.456s-19.456 8.711-19.456 19.456c0 10.745 8.711 19.456 19.456 19.456s19.456-8.711 19.456-19.456zM714.752 55.808c0-10.745-8.711-19.456-19.456-19.456s-19.456 8.711-19.456 19.456c0 10.745 8.711 19.456 19.456 19.456s19.456-8.711 19.456-19.456zM594.944-24.064c0-10.745-8.711-19.456-19.456-19.456s-19.456 8.711-19.456 19.456c0 10.745 8.711 19.456 19.456 19.456s19.456-8.711 19.456-19.456zM356.352-24.064c0-10.745-8.711-19.456-19.456-19.456s-19.456 8.711-19.456 19.456c0 10.745 8.711 19.456 19.456 19.456s19.456-8.711 19.456-19.456z" />
<glyph unicode="&#xe92d;" glyph-name="weather-snowy" d="M256 245.248h512c124.928 0 235.52 119.808 235.52 256 0 132.096-102.4 248.832-222.208 256-28.672 100.352-120.832 172.032-226.304 172.032-110.592 0-203.776-76.8-228.352-182.272-23.552 7.168-47.104 11.264-70.656 11.264-124.928 0-235.52-119.808-235.52-256s109.568-257.024 235.52-257.024zM256 715.264c26.624 0 53.248-6.144 78.848-17.408 6.144-3.072 13.312-2.048 19.456 1.024s10.24 9.216 10.24 16.384c11.264 97.28 92.16 171.008 190.464 171.008 91.136 0 171.008-64.512 188.416-154.624 2.048-10.24 11.264-16.384 21.504-17.408 2.048 0 3.072 0 4.096 0 109.568 0 192.512-112.64 192.512-214.016s-81.92-214.016-192.512-214.016h-513.024c-110.592 0-192.512 112.64-192.512 214.016s81.92 215.040 192.512 215.040zM405.504 74.24c0-11.876-9.628-21.504-21.504-21.504s-21.504 9.628-21.504 21.504c0 11.876 9.628 21.504 21.504 21.504s21.504-9.628 21.504-21.504zM618.496 74.24c0-11.876-9.628-21.504-21.504-21.504s-21.504 9.628-21.504 21.504c0 11.876 9.628 21.504 21.504 21.504s21.504-9.628 21.504-21.504zM533.504 159.232c0-11.876-9.628-21.504-21.504-21.504s-21.504 9.628-21.504 21.504c0 11.876 9.628 21.504 21.504 21.504s21.504-9.628 21.504-21.504zM747.52 159.232c0-11.876-9.628-21.504-21.504-21.504s-21.504 9.628-21.504 21.504c0 11.876 9.628 21.504 21.504 21.504s21.504-9.628 21.504-21.504zM490.496-11.776c0-11.876-9.628-21.504-21.504-21.504s-21.504 9.628-21.504 21.504c0 11.876 9.628 21.504 21.504 21.504s21.504-9.628 21.504-21.504zM319.488 159.232c0-11.876-9.628-21.504-21.504-21.504s-21.504 9.628-21.504 21.504c0 11.876 9.628 21.504 21.504 21.504s21.504-9.628 21.504-21.504z" />
<glyph unicode="&#xe92e;" glyph-name="weather-sunny" d="M517.12 199.168c140.288 0 253.952 113.664 253.952 253.952s-113.664 253.952-253.952 253.952-253.952-113.664-253.952-253.952c1.024-140.288 113.664-252.928 253.952-253.952zM517.12 675.328c122.88 0 222.208-99.328 222.208-222.208s-99.328-222.208-222.208-222.208-222.208 99.328-222.208 222.208c1.024 122.88 99.328 222.208 222.208 222.208zM495.616 780.8c9.216 0 15.36 7.168 15.36 15.36v128c1.024 8.192-6.144 15.36-15.36 15.36s-15.36-7.168-15.36-15.36v-126.976c0-9.216 7.168-16.384 15.36-16.384 0 0 0 0 0 0zM512-28.16v126.976c0 9.216-7.168 15.36-15.36 15.36-9.216 0-15.36-7.168-15.36-15.36v0-126.976c0-9.216 7.168-15.36 15.36-15.36s15.36 7.168 15.36 15.36zM179.2 432.64c0 9.216-7.168 15.36-15.36 15.36 0 0 0 0 0 0h-128c-8.192 0-15.36-7.168-15.36-16.384s7.168-15.36 15.36-15.36h126.976c9.216 0 16.384 7.168 16.384 16.384 0-1.024 0-1.024 0 0zM988.16 448h-126.976c-9.216 0-15.36-7.168-15.36-15.36 0-9.216 7.168-15.36 15.36-15.36h126.976c9.216 0 15.36 7.168 15.36 15.36s-7.168 15.36-15.36 15.36zM197.632 105.984l90.112 90.112c6.144 6.144 5.12 16.384-1.024 22.528s-15.36 6.144-21.504 0l-90.112-90.112c-6.144-6.144-5.12-16.384 1.024-22.528s15.36-6.144 21.504 0zM769.024 684.544c4.096 0 8.192 2.048 11.264 4.096l90.112 90.112c6.144 6.144 7.168 16.384 1.024 22.528s-16.384 7.168-22.528 1.024c0 0-1.024-1.024-1.024-1.024l-90.112-90.112c-6.144-6.144-6.144-16.384 0-22.528 3.072-3.072 7.168-4.096 11.264-4.096v0zM780.288 217.6c-6.144 6.144-16.384 5.12-22.528-1.024s-6.144-15.36 0-21.504l90.112-90.112c6.144-6.144 16.384-6.144 22.528 0s6.144 16.384 0 22.528l-90.112 90.112zM265.216 688.64c6.144-6.144 16.384-6.144 22.528 0s6.144 16.384 0 22.528l-90.112 90.112c-6.144 6.144-16.384 5.12-22.528-1.024s-6.144-15.36 0-21.504l90.112-90.112z" />
<glyph unicode="&#xe92f;" glyph-name="weather-windy" d="M274.432 562.688c0-10.24 8.192-18.432 18.432-18.432h436.224c10.24 0 18.432 8.192 18.432 18.432s-8.192 18.432-18.432 18.432h-436.224c-10.24 0-18.432-8.192-18.432-18.432zM1003.52 589.312c0 62.464-47.104 132.096-114.688 132.096-10.24 0-18.432-8.192-18.432-18.432s8.192-18.432 18.432-18.432c44.032 0 78.848-51.2 78.848-96.256 0-44.032-35.84-80.896-80.896-80.896h-521.216c-10.24 0-18.432-8.192-18.432-18.432s8.192-18.432 18.432-18.432h520.192c65.536 1.024 117.76 54.272 117.76 118.784zM967.68 295.424c0 64.512-51.2 140.288-117.76 140.288h-629.76c-10.24 0-18.432-8.192-18.432-18.432s8.192-18.432 18.432-18.432h629.76c43.008 0 80.896-58.368 80.896-103.424 0-46.080-34.816-83.968-78.848-83.968-10.24 0-18.432-8.192-18.432-18.432s8.192-18.432 18.432-18.432c63.488 0 115.712 54.272 115.712 120.832zM93.184 562.688c0-10.24 8.192-18.432 18.432-18.432h108.544c10.24 0 18.432 8.192 18.432 18.432s-8.192 18.432-18.432 18.432h-108.544c-10.24 0-18.432-8.192-18.432-18.432zM38.912 398.848h108.544c10.24 0 18.432 8.192 18.432 18.432s-8.192 18.432-18.432 18.432h-108.544c-10.24 0-18.432-8.192-18.432-18.432s8.192-18.432 18.432-18.432zM184.32 471.552h108.544c10.24 0 18.432 8.192 18.432 18.432s-8.192 18.432-18.432 18.432h-108.544c-10.24 0-18.432-8.192-18.432-18.432s8.192-18.432 18.432-18.432z" />
<glyph unicode="&#xe930;" glyph-name="youtube" d="M983.040 684.544c-11.264 41.984-44.032 75.776-87.040 87.040-76.8 20.48-384 20.48-384 20.48s-307.2 0-385.024-20.48c-40.96-11.264-75.776-45.056-87.040-87.040-19.456-76.8-19.456-236.544-19.456-236.544s0-160.768 20.48-236.544c11.264-41.984 44.032-75.776 87.040-87.040 76.8-20.48 384-20.48 384-20.48s307.2 0 385.024 20.48c41.984 11.264 75.776 44.032 87.040 87.040 20.48 76.8 20.48 236.544 20.48 236.544s0 159.744-21.504 236.544zM413.696 300.544v294.912l256-147.456-256-147.456z" />
<glyph unicode="&#xe931;" glyph-name="youtube-filled" d="M983.040 684.646c-11.654 42.435-44.4 75.181-85.972 86.632l-0.863 0.203c-77.005 20.582-384.205 20.582-384.205 20.582s-307.2 0-384.102-20.48c-42.5-11.641-75.297-44.437-86.736-86.075l-0.202-0.863c-20.48-76.698-20.48-236.646-20.48-236.646s0-159.949 20.48-236.646c11.654-42.435 44.4-75.181 85.972-86.632l0.863-0.203c76.698-20.48 384.102-20.48 384.102-20.48s307.2 0 384.102 20.48c42.52 11.592 75.35 44.354 86.837 85.972l0.203 0.863c20.48 76.698 20.48 236.646 20.48 236.646s0 159.949-20.48 236.646zM413.696 300.544v294.912l255.386-147.456z" />
<glyph unicode="&#xe932;" glyph-name="home-filled" d="M977.101 511.898v0l-401.101 401.101c-16.38 16.376-39.007 26.505-64 26.505s-47.62-10.129-64-26.505l-400.793-400.793c-16.247-16.358-26.288-38.898-26.288-63.782 0-48.579 38.266-88.22 86.301-90.425l0.198-0.007h18.842v-295.629c0.057-58.31 47.195-105.591 105.444-105.881h157.417c15.892 0 28.774 12.883 28.774 28.774v0 231.424c0.058 26.67 21.663 48.275 48.327 48.333h92.166c26.67-0.058 48.275-21.663 48.333-48.327v-231.43c0 0 0 0 0 0 0-15.856 12.824-28.716 28.666-28.774h156.883c58.474 0.058 105.868 47.416 105.984 105.87v295.128h14.746c49.987 0.010 90.505 40.534 90.505 90.522 0 24.942-10.087 47.528-26.405 63.9l0.003-0.003z" />
<glyph unicode="&#xe933;" glyph-name="user" d="M314.778 686.797h19.866v-102.4c0.055-60.774 30.58-114.407 77.122-146.451l0.599-0.39v-33.28c-0.056-10.203-7.011-18.766-16.434-21.264l-0.154-0.035-16.179-4.198 37.683-151.142h25.088v7.987c0 14.647 11.874 26.522 26.522 26.522h85.197c14.647 0 26.522-11.874 26.522-26.522v0-7.987h26.010l37.786 150.733-16.179 4.096c-9.578 2.533-16.533 11.096-16.589 21.293v33.388c47.175 32.354 77.722 85.972 77.722 146.725 0 0.005 0 0.010 0 0.015v-0.001 102.4h19.866c13.147 0.040 23.788 10.707 23.788 23.859 0 4.879-1.464 9.416-3.978 13.195l0.055-0.088-40.96 60.621-20.48 115.302c-3.945 22.919-23.586 40.163-47.289 40.345h-216.697c-0.011 0-0.024 0-0.036 0-23.69 0-43.399-17.043-47.534-39.537l-0.045-0.297-20.48-115.302-40.653-60.621c-2.458-3.692-3.923-8.228-3.923-13.107 0-13.152 10.642-23.819 23.785-23.859h0.004zM512 337.203c-0.165-0.001-0.36-0.001-0.556-0.001-32.838 0-62.351 14.233-82.708 36.866l-0.090 0.101c6.353 8.075 10.203 18.381 10.24 29.585v18.44c21.505-9.99 46.68-15.818 73.216-15.818s51.711 5.828 74.315 16.273l-1.099-0.455v-18.534c0.037-11.212 3.887-21.518 10.319-29.697l-0.079 0.104c-20.442-22.675-49.917-36.867-82.708-36.867-0.299 0-0.598 0.001-0.896 0.004h0.046zM662.938 583.885c0-0.041 0-0.089 0-0.137 0-83.361-67.577-150.938-150.938-150.938-29.254 0-56.564 8.322-79.692 22.729l0.639-0.371c-10.461 6.455-19.524 13.661-27.644 21.807l-0.004 0.004c-27.325 27.161-44.238 64.772-44.238 106.333 0 0.165 0 0.331 0.001 0.496v-0.026 102.4h301.875zM382.054 894.976c1.869 10.364 10.82 18.125 21.584 18.125 0.008 0 0.016 0 0.024 0h216.677c0.007 0 0.015 0 0.023 0 10.764 0 19.715-7.76 21.564-17.991l0.020-0.133 8.909-49.664h-277.709zM354.918 766.054h64.922c7.295 0 13.21 5.914 13.21 13.21s-5.914 13.21-13.21 13.21v0h-56.218l5.018 26.419h286.72l4.71-26.419h-178.176c-7.295 0-13.21-5.914-13.21-13.21s5.914-13.21 13.21-13.21h187.187l35.226-52.838h-384.614zM560.845 147.046h67.789v48.333h-54.477c-13.686 0.081-24.929 10.436-26.408 23.738l-0.011 0.121v10.24h-74.752v-10.24c-1.396-13.489-12.683-23.924-26.415-23.962h-54.686v-48.333h67.789c6.993 21.678 26.99 37.085 50.586 37.085s43.593-15.407 50.481-36.709l0.105-0.375zM490.189 131.277c0-11.763 9.536-21.299 21.299-21.299s21.299 9.536 21.299 21.299v0c0 11.763-9.536 21.299-21.299 21.299s-21.299-9.536-21.299-21.299v0zM838.554 287.334c0 0.614-0.819 1.331-1.331 2.048l-2.56 3.584s0 0 0 0v0c-19.146 26.224-45.929 45.851-77.056 55.719l-1.076 0.294-7.987 2.355-73.318 18.739v-2.048l-36.147-141.21c12.806-2.049 22.481-12.995 22.528-26.209v-138.757c0-0.002 0-0.004 0-0.005 0-10.597-6.215-19.742-15.199-23.99l-0.161-0.069h-269.517c-9.114 4.356-15.309 13.48-15.36 24.057v138.759c0 0.019 0 0.042 0 0.065 0 13.545 10.193 24.709 23.326 26.24l0.123 0.012-35.738 143.36-73.318-18.534c-67.167-17.604-115.917-77.761-115.917-149.304 0-0.070 0-0.141 0-0.211v0.011-151.245c0-7.295 5.914-13.21 13.21-13.21s13.21 5.914 13.21 13.21v0 44.954h105.677v-139.469h440.32v139.469h105.472v-44.954c0-7.295 5.914-13.21 13.21-13.21s13.21 5.914 13.21 13.21v0 151.245c0 0.056 0 0.122 0 0.189 0 31.63-9.561 61.027-25.95 85.459l0.349-0.553zM629.862 115.302h-67.789c-6.993-21.678-26.99-37.085-50.586-37.085s-43.593 15.407-50.481 36.709l-0.105 0.375h-67.789v-48.23h236.749z" />
<glyph unicode="&#xe934;" glyph-name="home" d="M977.101 511.898v0l-401.101 401.101c-16.38 16.376-39.007 26.505-64 26.505s-47.62-10.129-64-26.505l-400.793-400.793c-16.247-16.358-26.288-38.898-26.288-63.782 0-48.579 38.266-88.22 86.301-90.425l0.198-0.007h18.842v-295.629c0.057-58.31 47.195-105.591 105.444-105.881h157.417c15.892 0 28.774 12.883 28.774 28.774v0 231.424c0.058 26.67 21.663 48.275 48.327 48.333h92.166c26.67-0.058 48.275-21.663 48.333-48.327v-231.43c0 0 0 0 0 0 0-15.856 12.824-28.716 28.666-28.774h156.883c58.474 0.058 105.868 47.416 105.984 105.87v295.128h14.746c49.987 0.010 90.505 40.534 90.505 90.522 0 24.942-10.087 47.528-26.405 63.9l0.003-0.003zM936.141 424.755c-5.87-5.944-14.019-9.626-23.029-9.626-0.076 0-0.152 0-0.228 0.001h-43.508c0 0 0 0-0.001 0-15.82 0-28.658-12.766-28.774-28.559v-324.209c-0.058-26.67-21.663-48.275-48.327-48.333h-128.108v202.65c-0.058 58.453-47.428 105.823-105.876 105.882h-92.166c-0.091 0-0.199 0-0.307 0-58.498 0-105.926-47.393-105.984-105.877v-202.656h-128.102c-26.67 0.058-48.275 21.663-48.333 48.327v324.204c0 0.030 0 0.066 0 0.102 0 15.892-12.883 28.774-28.774 28.774 0 0 0 0 0 0h-44.237c-17.892 0.34-32.265 14.924-32.265 32.865 0 9.081 3.682 17.301 9.635 23.25l400.999 400.691c5.926 5.999 14.151 9.715 23.245 9.715s17.319-3.716 23.242-9.712l400.899-400.899c5.986-5.97 9.69-14.226 9.69-23.347 0-9.070-3.662-17.285-9.589-23.246l0.002 0.002z" />
<glyph unicode="&#xe935;" glyph-name="holl" d="M512-43.52c-271.459 0-491.52 220.061-491.52 491.52s220.061 491.52 491.52 491.52c271.459 0 491.52-220.061 491.52-491.52v0c0-271.459-220.061-491.52-491.52-491.52v0zM512 898.56c-248.837 0-450.56-201.723-450.56-450.56s201.723-450.56 450.56-450.56c248.837 0 450.56 201.723 450.56 450.56v0c0 248.837-201.723 450.56-450.56 450.56v0zM406.426 782.746h57.754v-606.413h-57.754v606.413zM493.056 257.126v-51.917c0-31.896-25.857-57.754-57.754-57.754s-57.754 25.857-57.754 57.754v0 51.917c-52.019-11.571-86.63-43.315-86.63-80.794 0-49.152 60.621-86.63 144.384-86.63s144.384 37.478 144.384 86.63c0 37.478-34.714 66.355-86.63 80.794zM822.272 664.371l-288.87 115.507c-3.486 1.64-7.57 2.597-11.879 2.597-15.722 0-28.467-12.745-28.467-28.467 0-0.049 0-0.098 0-0.147v0.008-231.014c-0.001-0.089-0.002-0.195-0.002-0.3 0-15.665 12.699-28.365 28.365-28.365 4.35 0 8.47 0.979 12.154 2.729l-0.172-0.073 288.87 114.995c10.533 4.267 17.828 14.414 17.828 26.266s-7.294 21.999-17.639 26.198l-0.189 0.068z" />
<glyph unicode="&#xe936;" glyph-name="meter" d="M512 939.52c-271.459 0-491.52-220.061-491.52-491.52s220.061-491.52 491.52-491.52c271.459 0 491.52 220.061 491.52 491.52v0c0 271.459-220.061 491.52-491.52 491.52v0zM836.915 316.314h-649.83v152.166h35.533v-61.44c0-6.617 5.364-11.981 11.981-11.981s11.981 5.364 11.981 11.981v0 61.44h31.539v-34.406c0-6.617 5.364-11.981 11.981-11.981s11.981 5.364 11.981 11.981v0 34.406h31.539v-34.406c-0.033-0.332-0.051-0.717-0.051-1.106 0-6.617 5.364-11.981 11.981-11.981s11.981 5.364 11.981 11.981c0 0.39-0.019 0.775-0.055 1.155l0.004-0.048v34.406h31.642v-34.406c0-6.617 5.364-11.981 11.981-11.981s11.981 5.364 11.981 11.981v0 34.406h31.539v-34.406c0-6.617 5.364-11.981 11.981-11.981s11.981 5.364 11.981 11.981v0 34.406h31.539v-61.44c0-6.617 5.364-11.981 11.981-11.981s11.981 5.364 11.981 11.981v0 61.44h31.539v-34.406c0-6.617 5.364-11.981 11.981-11.981s11.981 5.364 11.981 11.981v0 34.406h31.539v-34.406c0-6.617 5.364-11.981 11.981-11.981s11.981 5.364 11.981 11.981v0 34.406h31.539v-34.406c-0.033-0.332-0.051-0.717-0.051-1.106 0-6.617 5.364-11.981 11.981-11.981s11.981 5.364 11.981 11.981c0 0.39-0.019 0.775-0.055 1.155l0.004-0.048v34.406h31.437v-34.406c0-6.617 5.364-11.981 11.981-11.981s11.981 5.364 11.981 11.981v0 34.406h31.539v-61.44c0-6.617 5.364-11.981 11.981-11.981s11.981 5.364 11.981 11.981v0 61.44h35.533zM762.266 546.611v30.72h-500.531v-30.72l-74.65 43.11 74.65 42.598v-30.72h500.531v30.72l74.65-43.008z" />
<glyph unicode="&#xe937;" glyph-name="par" d="M643.701 380.294l15.168 44.379 66.083-22.587-15.168-44.379-66.083 22.587zM666.66 447.35l25.587 74.905 66.087-22.575-25.587-74.905-66.087 22.575zM725.299 352.358l-97.485 33.28-42.291-123.494s-165.683 99.84-266.035 133.939-137.011-163.123-85.094-211.763c10.272-8.386 22.169-15.307 35.068-20.19l0.874-0.29c-2.6 8.273-4.097 17.786-4.097 27.649 0 0.18 0 0.359 0.001 0.539v-0.028c0 3.277 0 6.656 0.512 10.24s-0.512 6.554-0.512 10.24c-0.033 0.922-0.051 2.006-0.051 3.094 0 51.634 41.857 93.491 93.491 93.491s93.491-41.857 93.491-93.491c0-1.088-0.019-2.172-0.055-3.25l0.004 0.157c0-3.379 0-6.656 0-10.24s0-6.656 0-10.24c0-0.074 0-0.162 0-0.25 0-23.493-8.732-44.947-23.129-61.292l0.088 0.102c84.378-5.427 173.056 5.632 218.829 48.742 35.84 35.021 32.358 47.206 32.358 47.206zM452.403 202.24c-4.616-47.734-44.526-84.749-93.082-84.749s-88.466 37.016-93.052 84.368l-0.030 0.381c0-3.277-0.512-6.656-0.512-10.24 0.005-10.091 1.578-19.812 4.487-28.937l-0.186 0.675c12.083-38.608 47.527-66.136 89.4-66.136 51.634 0 93.491 41.857 93.491 93.491 0 0.319-0.002 0.637-0.005 0.956v-0.049c0 3.277-0.205 6.656-0.512 10.24zM512 939.52c-271.459 0-491.52-220.061-491.52-491.52s220.061-491.52 491.52-491.52c271.459 0 491.52 220.061 491.52 491.52v0c0 271.459-220.061 491.52-491.52 491.52v0zM512-2.56c-0.168 0-0.367 0-0.566 0-248.837 0-450.56 201.723-450.56 450.56s201.723 450.56 450.56 450.56c103.727 0 199.267-35.051 275.422-93.956l-1.038 0.772-85.811-260.403 66.048-22.63 78.438 229.376c73.018-79.798 117.755-186.534 117.755-303.719 0-248.728-201.545-450.382-450.231-450.56h-0.017z" />
<glyph unicode="&#xe93d;" glyph-name="share-link" d="M917.504 794.112h-811.008c-47.104 0-86.016-38.912-86.016-87.040v-518.144c0-48.128 38.912-86.016 86.016-86.016h809.984c48.128 0 86.016 38.912 86.016 86.016v518.144c1.024 48.128-37.888 87.040-84.992 87.040zM308.224 160.256h-201.728c-16.384 0-28.672 13.312-28.672 28.672v316.416h62.464c14.336-43.008 58.368-68.608 103.424-60.416l-45.056-67.584c-9.216-13.312-5.12-30.72 8.192-39.936s30.72-5.12 39.936 8.192l62.464 93.184v-278.528zM193.536 534.016c0 26.624 28.672 41.984 51.2 27.648l40.96-27.648-40.96-27.648c-22.528-14.336-51.2 2.048-51.2 27.648zM308.224 588.288l-31.744 21.504c-50.176 32.768-116.736 9.216-136.192-46.080h-62.464v143.36c0 16.384 13.312 28.672 28.672 28.672h201.728v-147.456zM946.176 188.928c0-16.384-13.312-28.672-28.672-28.672h-550.912v278.528l62.464-93.184c9.216-13.312 26.624-16.384 39.936-8.192 13.312 9.216 16.384 26.624 8.192 39.936l-45.056 67.584c44.032-9.216 89.088 16.384 103.424 60.416h411.648v-316.416zM389.12 534.016l40.96 27.648c21.504 14.336 51.2-1.024 51.2-27.648s-29.696-41.984-51.2-27.648l-40.96 27.648zM946.176 562.688h-411.648c-18.432 56.32-86.016 79.872-136.192 46.080l-31.744-21.504v148.48h550.912c16.384 0 28.672-13.312 28.672-28.672v-144.384zM846.848 276.992c-10.24 0-20.48-4.096-27.648-10.24l-66.56 47.104c2.048 5.12 3.072 10.24 3.072 15.36s-1.024 11.264-3.072 15.36l66.56 47.104c7.168-6.144 17.408-10.24 27.648-10.24 23.552 0 41.984 18.432 41.984 41.984s-18.432 41.984-41.984 41.984c-23.552 0-41.984-18.432-41.984-41.984 0-5.12 1.024-11.264 3.072-15.36l-66.56-47.104c-7.168 6.144-17.408 10.24-27.648 10.24-23.552 0-41.984-18.432-41.984-41.984s18.432-41.984 41.984-41.984c10.24 0 20.48 4.096 27.648 10.24l66.56-47.104c-2.048-5.12-3.072-10.24-3.072-15.36 0-23.552 18.432-41.984 41.984-41.984s41.984 18.432 41.984 41.984c0 22.528-19.456 41.984-41.984 41.984z" />
</font>
</defs>
</svg>
