<svg version="1.1" id="Layer_1" xmlns="http://www.w3.org/2000/svg" xmlns:xlink="http://www.w3.org/1999/xlink" x="0" y="0" viewBox="0 0 48 48" xml:space="preserve"><style>.st0{fill:#fff}</style><g id="Group_888" transform="translate(9982 6573.999)"><g transform="translate(-9982 -6574)"><path id="Path_448-2" class="st0" d="M25.3 4.6c2.6-1 6.1-3.2 8 .2.9 1.5 1.9 4.7 3.8 5.1 2.7.9 6.7 1.4 6 5.3l-.8 3.7c-.8 3.8 5.9 6.8 1.7 10.5-1.3 1.2-4.3 2.7-4.4 4.7-.4 2.8-.2 6.9-4.2 6.8-1.7 0-5-.7-6.3.8-2.1 1.9-4.6 5.1-7.6 2.6l-2.8-2.6c-2.9-2.6-8.8 1.7-10-3.8-.3-1.7-.2-5-1.9-6.1-2.2-1.7-5.9-3.6-3.8-7 .8-1.5 3.1-4 2.5-5.9-.6-2.8-2.2-6.5 1.6-7.8l3.6-1.2c1.9-.4 2.9-3.6 3.8-5.1 3.1-4.8 7.3 1.3 10.8-.2"/></g><path id="Ellipse_76" d="M-9958-6567.3c22.5.7 22.5 33.4 0 34.1-22.5-.7-22.5-33.4 0-34.1z" fill="#a1c419"/><g transform="translate(-9961.519 -6558.384)" id="Group_879"><defs><path id="SVGID_1_" d="M-6.4-3.1h19.9V20H-6.4z"/></defs><clipPath id="SVGID_00000058554615342026182010000011551363894169274252_"><use xlink:href="#SVGID_1_" overflow="visible"/></clipPath><g id="Group_869" clip-path="url(#SVGID_00000058554615342026182010000011551363894169274252_)"><path id="Path_446" class="st0" d="M9.9 7.5c.9-8.8 3.5-10.5 3.6-10.6-.2.1-8.6.6-14.7 5.4C-5.4 5.2-9.5 14.3-3 19-4 14.6-1.6 8.3 4.6 4.4c-5.9 4.8-7 12-6.1 15.2C4 21.2 8.9 17.5 9.9 7.5"/></g></g></g></svg>